<?xml version="1.0" encoding="UTF-8" standalone="no"?>
<!-- Created with Inkscape (http://www.inkscape.org/) -->

<svg
   version="1.1"
   id="svg1"
   width="662.91113"
   height="882.08551"
   viewBox="0 0 662.91114 882.08551"
   sodipodi:docname="Dark Krakens [Imperium, Adeptus Astartes, Space Marines, Salamanders].svg"
   inkscape:version="1.4.2 (f4327f4, 2025-05-13)"
   xmlns:inkscape="http://www.inkscape.org/namespaces/inkscape"
   xmlns:sodipodi="http://sodipodi.sourceforge.net/DTD/sodipodi-0.dtd"
   xmlns="http://www.w3.org/2000/svg"
   xmlns:svg="http://www.w3.org/2000/svg">
  <defs
     id="defs1" />
  <sodipodi:namedview
     id="namedview1"
     pagecolor="#ffffff"
     bordercolor="#000000"
     borderopacity="0.25"
     inkscape:showpageshadow="2"
     inkscape:pageopacity="0.0"
     inkscape:pagecheckerboard="0"
     inkscape:deskcolor="#d1d1d1"
     inkscape:zoom="0.92927209"
     inkscape:cx="327.67583"
     inkscape:cy="381.48138"
     inkscape:window-width="3440"
     inkscape:window-height="1369"
     inkscape:window-x="-8"
     inkscape:window-y="-8"
     inkscape:window-maximized="1"
     inkscape:current-layer="g1" />
  <g
     inkscape:groupmode="layer"
     inkscape:label="Image"
     id="g1"
     transform="translate(-8.8162788,-0.58113247)">
    <path
       style="fill:#030303;stroke:none"
       d="m 264.00001,377.33333 c -9.3664,11.93474 -28.69833,15.60275 -42.66667,19.61215 -38.5776,11.07316 -84.94287,8.72115 -110.7675,-26.27881 -9.81633,-13.304 -13.620362,-28.53374 -18.565837,-44 15.332237,-3.77723 32.793857,-4.51441 45.048347,7.29012 15.18133,14.6239 -4.65191,24.59057 -18.38168,22.04321 3.71202,20.49182 30.2899,19.92997 38.59979,2.66154 20.13007,-41.83138 -36.89887,-61.8326 -67.933124,-51.99487 0.2948,-35.60791 13.975694,-70.64075 20.518514,-105.33334 4.88967,-25.92692 7.26213,-56.31266 -19.185181,-71.73453 -23.761678,-13.8558 -73.298441,0.57552 -69.976339,34.39502 0.905343,9.21655 10.484148,8.87532 16.643004,4.98763 13.136867,-8.29257 32.197175,-31.18376 43.747947,-6.31373 1.343658,2.89307 2.372055,6.14071 2.620371,9.33228 2.219218,28.52336 -17.340251,61.84969 -23.855973,89.33333 -4.391759,18.52466 -0.75211,39.25802 -5.416661,56.95268 -2.228745,8.45459 -11.672898,15.8547 -15.15741,24.38066 -8.444387,20.6619 -8.646681,43.54594 -5.557615,65.33333 10.934476,77.12158 100.958797,143.82194 175.619347,101.33333 -27.03886,38.84115 -66.76378,71.76453 -104,100.46501 -25.823964,19.9043 -53.685496,37.40275 -72.338481,64.86833 C 10.123869,708.34302 0.9650396,753.39429 16.60391,792 c 22.549831,55.66585 94.39066,73.36702 140.72943,35.3807 24.40918,-20.00961 37.86019,-55.34603 27.52571,-86.04737 -11.00874,-32.70451 -53.60101,-46.34635 -80.73868,-23.30965 -11.572973,9.82406 -16.461066,26.15088 -11.822017,40.64299 3.155619,9.85791 11.425157,18.97135 22.368317,16 -3.20028,-8.50529 -9.37315,-15.71867 -6.20268,-25.33334 5.14919,-15.61523 29.32697,-24.75171 42.06276,-13.03393 13.68671,12.59269 10.25811,33.26115 1.89918,47.7006 -13.59275,23.48047 -43.88485,35.80485 -69.759261,27.70573 C 41.90468,798.94661 33.071232,749.05664 49.677985,714.66667 68.92499,674.8092 108.62192,653.63192 142.66667,628.13989 162.55427,613.24849 179.91879,594.14551 200.00001,580 c 0,65.3562 45.00567,120.99072 46.2469,185.33333 0.62661,32.48153 -18.42273,52.3947 -27.58024,81.33334 30.18134,-5.21346 44.6096,-41.54883 49.59465,-68 13.38153,-71.00367 -37.46973,-134.06104 -30.70164,-204 4.68534,-48.41663 41.40483,-81.01913 61.107,-122.66667 h 1.33333 c -3.9761,49.96232 -22.73808,97.28955 -23.98045,148 -0.86434,35.28007 1.15653,70.57402 7.46604,105.33333 6.58419,36.27255 18.92467,73.54208 9.98251,110.66667 -7.02354,29.15918 -30.01988,42.02808 -42.80144,66.66667 11.06381,-1.4056 22.18047,-3.63477 32.00001,-9.16773 C 354.6089,832.96208 325.97018,744.45508 321.45269,680 c -1.05793,-15.09436 -2.01789,-30.16028 -1.40125,-45.33333 1.85753,-45.70736 14.71603,-87.37443 21.2819,-132 h 1.33334 c 9.27018,47.80273 23.23795,98.92781 19.88065,148 -3.38549,49.4847 -21.55068,101.0039 -12.59672,150.66666 7.37175,40.88697 39.0188,72.44515 82.0494,73.33334 C 420.80629,848.22233 390.65203,838.62573 384.01954,808 373.3696,758.8234 401.84641,706.46322 405.214,657.33333 410.16078,585.16532 394.44626,520.69438 380.00001,450.66667 h 1.33333 c 19.80034,41.67045 56.01148,73.08846 62.28085,121.33333 3.45479,26.58577 -5.09517,53.28536 -11.76847,78.66667 C 421.8248,688.78044 411.80954,724.28589 412.00103,764 c 0.13505,28.01147 15.22042,79.56372 49.33232,81.33333 -2.86149,-9.6556 -10.03487,-17.52246 -14.25411,-26.66666 -8.29395,-17.9751 -11.89234,-37.59685 -11.02674,-57.33334 1.21774,-27.76456 13.11682,-55.55989 22.54322,-81.33333 11.95739,-32.69364 22.56705,-66.31217 24.07096,-101.33333 25.13334,26.58252 54.23421,47.69869 84,68.76749 27.06849,19.15959 55.12737,39.16708 67.72738,71.23251 17.53679,44.6289 -14.92887,107.90836 -69.06071,91.94238 -19.77714,-5.83317 -37.79163,-22.3335 -42.9856,-42.60905 -3.72367,-14.53597 0.76258,-31.743 16.31893,-36.70369 19.59815,-6.2496 28.98454,14.73836 45.33334,18.03702 5.39469,-29.49707 -24.72787,-46.09659 -50.66667,-42.26546 -19.69161,2.90845 -34.21261,19.66162 -38.9856,38.26546 -19.17741,74.74854 76.11182,125.11906 134.9856,87.27059 51.06267,-32.8269 51.56759,-102.77905 24.91769,-151.27059 C 636.04779,648.21118 602.82932,628.57125 573.33335,606.82096 536.9273,579.97526 498.10858,546.54317 472.00001,509.33333 546.9026,551.91862 637.66738,485.24097 648.76235,408 c 3.01054,-20.95866 2.68298,-44.08565 -5.36625,-64 -3.63953,-9.00444 -11.73019,-16.32068 -14.64405,-25.33333 -5.53934,-17.13347 -2.09013,-39.12211 -6.58435,-57.33334 -6.76298,-27.4045 -26.67415,-60.82365 -24.12964,-89.33333 1.15817,-12.97648 12.03553,-25.4974 25.96196,-19.69548 8.04512,3.35173 12.97091,11.13192 20,15.95679 5.54578,3.80672 15.40328,5.95158 17.02364,-2.98657 5.84172,-32.22371 -41.1923,-48.89152 -65.02364,-38.139 -30.06446,13.56486 -28.51176,46.83781 -23.89197,74.19759 5.84131,34.59379 19.79431,68.54232 19.89197,104 -13.87928,-1.75407 -29.33281,-3.26542 -42.66667,1.95166 -19.7148,7.71371 -36.80921,31.88408 -23.9928,52.70988 9.52271,15.47376 33.73043,15.84343 37.32613,-3.99487 -12.34318,2.29146 -32.4504,-4.83846 -19.69547,-19.97941 8.24503,-9.78744 20.6735,-13.03341 33.02881,-11.79321 5.03047,0.50496 12.64013,1.25781 12.24385,7.83125 -0.4637,7.69149 -4.67248,17.06214 -7.95682,23.94137 -22.40813,46.9349 -75.02271,53.47856 -120.28704,40.56173 -13.67098,-3.90121 -33.54459,-7.60494 -42.66666,-19.2284 31.24259,-15.36816 -17.89714,-40.82715 -9.07406,-57.08231 6.93579,-12.77812 26.5085,-4.9587 31.50822,-21.58435 8.03243,-26.71057 -11.25073,-54.49553 3.51851,-80 C 454.51356,199.27824 490.16509,186.60433 493.02984,164 494.85056,149.63346 480.59246,132.35978 472.95578,121.33333 448.16985,85.54541 417.89007,55.911051 384.00001,28.800456 373.57134,20.457926 354.26922,0.33927409 340.00001,0.58333333 326.67306,0.8112793 307.1682,20.508626 297.33334,28.565837 c -33.48301,27.431071 -63.76068,57.424235 -88.94548,92.767493 -7.31624,10.26734 -22.41803,27.88827 -21.15842,41.33334 2.18023,23.27205 40.08689,38.05354 51.75616,57.33333 15.06653,24.8927 -5.83775,53.23352 3.05866,79.99898 5.07316,15.26298 24.22186,8.09798 31.04525,20.25204 9.8161,17.48482 -39.08971,39.7327 -9.0895,57.08231 M 65.333335,364 c 7.01913,13.16626 12.444474,26.17187 22.787039,37.33333 C 133.25135,450.03756 194.15432,450.43604 252.00001,428 226.50576,464.19202 177.14222,496.07072 132,479.87964 98.13719,467.73413 70.486381,435.2568 63.739717,400 c -1.905314,-9.95683 -3.765609,-27.05347 1.593618,-36 m 553.333355,1.33333 C 630.8513,428.16463 574.68263,490.17769 510.66668,483.77262 480.00799,480.70508 446.44166,452.28723 429.33335,428 c 15.19254,4.95182 29.39314,11.51591 45.33333,14.08232 41.22156,6.6368 84.10271,-5.08277 114.64714,-34.20166 13.11344,-12.50143 18.25053,-29.14803 29.35287,-42.54733 z"
       id="path2" />
  </g>
</svg>
