<?xml version="1.0" encoding="UTF-8" standalone="no"?>
<svg
   width="1228.991"
   height="1534.5757"
   version="1.1"
   id="svg33"
   sodipodi:docname="dragon.svg"
   xml:space="preserve"
   inkscape:version="1.4.2 (f4327f4, 2025-05-13)"
   xmlns:inkscape="http://www.inkscape.org/namespaces/inkscape"
   xmlns:sodipodi="http://sodipodi.sourceforge.net/DTD/sodipodi-0.dtd"
   xmlns="http://www.w3.org/2000/svg"
   xmlns:svg="http://www.w3.org/2000/svg"><defs
     id="defs33" /><sodipodi:namedview
     id="namedview33"
     pagecolor="#e3e3e3"
     bordercolor="#000000"
     borderopacity="0.25"
     inkscape:showpageshadow="2"
     inkscape:pageopacity="0.0"
     inkscape:pagecheckerboard="0"
     inkscape:deskcolor="#d1d1d1"
     inkscape:zoom="0.6433716"
     inkscape:cx="262.67868"
     inkscape:cy="639.59926"
     inkscape:window-width="3440"
     inkscape:window-height="1369"
     inkscape:window-x="-8"
     inkscape:window-y="-8"
     inkscape:window-maximized="1"
     inkscape:current-layer="g33" /><path
     id="path40"
     style="baseline-shift:baseline;display:inline;overflow:visible;opacity:1;vector-effect:none;stroke:none;enable-background:accumulate;stop-color:#000000;stop-opacity:1"
     d="m 1046.873,0 -0.01,0.004 -0.01,0.004 c -37.4687,27.78499 -74.1866,57.69681 -109.3828,88.61328 -7e-4,6e-4 0,0.001 0,0.002 L 922.146,125.52563 C 959.6333,86.463 1000.1705,49.4888 1042.521,18.84399 c 1.1023,-4.63996 2.2995,-10.56 4.3535,-18.84375 z M 941.541,1.16406 C 726.3703,182.53111 613.1813,424.06258 605.1875,441.49414 c 32.9494,19.17156 45.9907,49.99376 41.6309,77.60937 -4.0161,25.4381 -22.7485,47.94436 -52.2266,56.12891 16.2246,6.84096 41.6431,10.22861 69.4238,9.17383 32.4451,-1.23189 38.2875,1.23455 64.6563,-10.32618 4.979,-15.05568 8.2114,-31.76209 8.3886,-48.57031 0.3462,-32.83393 -10.593,-65.87115 -42.4218,-89.45898 l -2.9141,-2.16016 1.8047,-3.14648 c 0,0 88.4966,-154.68217 214.9687,-290.76368 l 22.7051,-55.37109 c -3.9456,-18.34134 -0.1899,-35.45543 3.8086,-50.67773 3.2121,-12.22833 6.372,-23.26231 6.5293,-32.76758 z m 99.3516,29.10351 c -44.0491,32.693 -86.0602,72.13827 -124.5645,113.37696 -6.7238,6.91441 -10.9803,11.75685 -19.8515,21.83398 -0.4405,0.51153 -0.8447,1.04791 -1.2305,1.5957 -109.2971,122.87698 -186.2354,253.32614 -192.8496,264.7129 9.9436,7.85107 17.8914,16.66644 24.1074,26.10742 14.2298,-16.03415 64.6686,-71.92772 128.4727,-131.81055 73.6446,-69.11872 164.8099,-143.68595 240.1718,-168.63672 -35.9722,-26.38223 -58.7579,-77.35267 -54.2558,-127.17969 z M 617.668,62.23242 c -11.4761,8.50178 -29.2537,18.97571 -57.2422,29.43554 -11.7271,4.38542 -25.0164,12.28395 -35.8379,20.58008 -9.0395,6.92994 -16.3724,14.474 -19.6719,19.51953 l 0.1348,0.084 c -0.4681,0.75112 -0.9723,1.53694 -1.4961,2.3457 -0.036,0.0811 -0.069,0.16161 -0.1016,0.24024 l -2.3144,5.63085 -0.8535,-0.84374 c -2.0508,3.19056 -3.954,6.32528 -4.8907,8.70312 l -7.5918,-2.99023 c 1.482,-3.76236 3.9247,-7.6922 6.252,-11.22266 -28.0158,-14.53187 -49.5714,-24.36562 -65.6914,-30.19531 -16.492,-5.96423 -27.4066,-7.55067 -33.0293,-6.46094 -2.8113,0.54487 -4.2026,1.5044 -5.1778,2.84766 -0.9751,1.34326 -1.6077,3.40986 -1.6347,6.46679 -0.05,5.62056 2.1408,14.09242 5.8398,24.15235 5.0151,3.39353 9.579,6.98033 13.6074,10.73437 27.6986,-1.89081 43.4922,-6.20312 43.4922,-6.20312 l 3.1914,-0.86914 1.5098,2.9414 c 6.8639,13.36782 14.18,21.78963 22.6328,32.0586 16.32,-0.37734 34.3668,1.94979 49.8008,11.42773 l 8.5645,5.26172 -9.6993,2.17383 c 0.026,-0.005 0.043,-0.005 0.053,-0.004 v 0.002 0.002 c -0.071,0.0574 -1.2495,0.45534 -2.4317,0.98437 -1.4691,0.65744 -3.4348,1.5796 -5.7011,2.66797 -4.5324,2.17674 -10.2798,5.02282 -15.9161,7.84375 -6.0372,3.02162 -7.6507,3.8627 -11.8398,5.99219 5.2173,1.18361 11.4031,2.64036 18.5762,4.74219 16.3043,4.7774 35.2509,11.6759 46.6445,21.91796 l 7.9141,7.11329 h -10.6407 c -4.096,0 -11.984,1.08629 -19.9746,3.67968 -6.4208,2.08388 -12.8768,5.20108 -17.9609,9.20703 1.4993,1.40645 2.8081,2.89674 3.9121,4.3086 1.0428,1.33369 1.9202,2.58861 2.6035,3.57422 0.6275,0.90522 1.2034,1.67792 1.2344,1.73242 v 0.002 0.002 0.004 c 4.5634,5.17081 11.2709,15.62536 16.9375,26.42188 2.8333,5.39826 5.3566,10.82519 7.082,15.6875 1.7254,4.8623 2.9497,8.94581 2.0117,13.09961 l -1.2324,5.45117 -4.8164,-2.83203 c -15.4487,-9.0857 -21.7735,-13.92744 -33.2871,-19.88477 l -0.3008,-0.1543 -0.2715,-0.20312 c -5.826,-4.36691 -13.5291,-7.52188 -22.3203,-9.69531 -0.2426,9.56991 -2.1806,19.17962 -8.0312,26.27539 v 0.002 c -1.7322,2.09906 -4.0273,3.34819 -6.5625,4.12695 1.2964,0.78196 2.5469,1.63802 3.7422,2.57617 3.2571,2.55334 3.4942,6.08751 3.6074,10.02735 0.1131,3.9408 -0.3771,8.68291 -1.3008,14.11133 -1.8474,10.85683 -5.4771,24.3877 -10.0977,38.02343 -4.6205,13.63574 -10.2215,27.33955 -16.0878,38.46485 -5.8662,11.1253 -11.4837,19.76995 -18.6368,23.39258 l -0.8632,0.4375 -0.9668,0.002 c -2.4947,0.007 -4.7169,-0.0126 -6.7403,-0.0781 1.6682,1.67252 3.3397,3.44297 5.0684,5.29688 l 1.4023,1.50391 -0.375,2.02539 c -4.9485,26.57492 -13.7361,47.36598 -25.4726,70.82812 -6.3129,12.61732 -12.7033,31.29139 -18.6211,43.69531 -0.5001,0.58472 -0.5871,1.63713 0.2226,2.83985 0.1163,0.17281 0.234,0.34358 0.3653,0.50586 0.3912,0.42025 0.8288,0.80084 1.3867,0.98047 0.2813,0.0868 0.5675,0.14953 0.8476,0.24023 0,0 0.01,0.001 0.01,0.002 v 0 -0.002 -0.002 -0.002 -0.002 -0.002 -0.002 -0.002 -0.002 -0.002 -0.002 c 0.192,0.0442 0.4017,0.24591 0.6074,0.2832 0.6035,0.22035 1.2287,0.39032 1.8789,0.32422 0.087,-0.01 0.1728,-0.0199 0.2598,-0.0312 0.2362,0.11812 0.4793,0.22276 0.7266,0.31836 0.3887,0.13524 0.7756,0.27714 1.1855,0.33594 0.3725,0.0624 0.7479,0.10647 1.125,0.10547 0.8862,0.2942 1.8073,0.62477 2.7656,0.98242 4.9805,1.85875 10.9219,4.49835 16.7246,6.89063 2.8198,1.16429 5.4707,2.14977 8.0293,3.79101 2.5585,1.64124 4.9037,4.04776 6.5625,7.36524 1.3037,2.60758 0.8999,4.92692 0.4512,7.24023 -0.4487,2.31331 -1.1942,4.76488 -1.9746,7.45508 -1.5608,5.38039 -3.2637,11.65269 -3.3047,18.05469 v 0.48828 l -0.1172,0.47461 c -0.4449,1.79586 -0.3632,6.79932 0.047,12.18945 0.3752,4.93192 0.8217,10.2943 0.709,15.20898 0.8028,1.54798 1.14,3.43176 0.6133,4.9668 -0.7688,2.2409 -2.3586,3.51392 -4.0313,4.42774 l -0.012,0.004 -0.01,0.002 c -3.1833,1.72423 -5.9697,3.12699 -8.8769,3.9121 -0.018,1.11295 -0.3809,2.15529 -0.8399,2.95508 -1.13,1.96882 -2.7128,3.1814 -5.0937,4.76953 v 0.002 c -6.3494,4.23289 -13.7459,4.20671 -17.9981,5.70898 v 0.002 c -18.2227,6.46615 -27.2804,7.95736 -47.9863,13.16602 -2.4556,1.0763 -5.1355,1.06158 -7.4336,0.4707 -1.1513,-0.29603 -2.2392,-0.71666 -3.2793,-1.22265 -0.1364,0.19205 -0.2752,0.38129 -0.414,0.56836 -2.4855,3.35035 -5.8783,6.44435 -6.3496,7.04882 v 0.004 0.002 c -2.0131,2.57396 -4.4207,4.4147 -7.42,5.84571 -2.9993,1.43101 -6.6591,2.69443 -12.4609,4.97656 v 0.002 c -4.3278,1.6999 -12.3574,6.00369 -20.1426,9.16797 -3.8926,1.58214 -7.753,2.91004 -11.4414,3.47461 -2.2201,0.33977 -4.528,0.44582 -6.6875,-0.10156 -0.1599,0.76099 -0.3745,1.48964 -0.6055,2.19922 -1.0162,3.12143 -2.5833,6.00912 -3.0664,7.01562 v 0.002 c -1.3653,2.84581 -3.4469,4.38148 -6.1621,6.61133 -2.716,2.23055 -6.0399,4.6675 -9.459,7.11328 -6.8384,4.89157 -14.2568,10.03716 -16.7714,12.3711 -3.8764,3.59606 -5.751,7.91423 -8.2715,11.5625 -1.2603,1.82413 -3.0018,3.96128 -6.043,4.45898 -3.0411,0.4977 -5.7114,-0.97703 -8.1914,-3.08398 v 0.002 c -7.436,-6.31394 -13.6929,-13.32157 -18.1387,-18.09375 -0.044,-0.0266 -0.156,-0.10139 -0.4062,-0.17969 -0.5605,-0.17541 -1.4732,-0.36988 -2.6172,-0.83789 -0.099,-0.0405 -0.2033,-0.0829 -0.3106,-0.13086 -10.0916,5.13945 -23.5175,8.56836 -23.5175,8.56836 l -1.8125,0.48243 -1.5469,-1.0625 c 0,-10e-6 -0.8207,-0.56032 -2.2578,-1.60352 -24.9474,8.61411 -65.79359,7.64242 -93.88088,2.69531 -6.6e-4,-1.1e-4 -10e-4,1.2e-4 -0.002,0 l -0.91797,0.48047 c -5.31579,2.78057 -9.4882,4.71048 -12.25976,6.80274 -2.42417,1.82996 -3.85803,3.78538 -4.90039,7.03906 0.21359,-0.005 0.42541,-0.008 0.63672,-0.0117 2.28196,-0.0375 4.40154,0.0231 6.18554,0.16016 1.61938,0.12439 2.75798,0.17887 4.15235,0.63476 5.27596,0.81721 9.30088,1.93916 12.44531,3.5 3.22074,1.59872 5.68092,3.83099 6.73828,6.76172 1.05736,2.93073 0.44755,6.00021 -0.77344,8.4707 -1.22098,2.4705 -3.03159,4.61635 -5.11328,6.64844 -4.16337,4.06417 -9.51496,7.64089 -14.12695,10.35156 -1.64883,0.9691 -3.19796,1.82127 -4.56836,2.53125 -0.99262,2.13805 -1.61098,4.14018 -1.83008,5.91602 0.25404,0.15454 0.49092,0.14504 0.98047,0.18164 0.94883,0.0709 3.02723,-0.27149 5.93359,-0.27149 h 6.63086 c 0.74943,-0.2392 1.50382,-0.46081 2.26563,-0.66992 l 79.97262,-33.06445 c -20.81,12.63 -33.32934,18.05101 -39.60934,21.04101 -18.5609,8.83443 -30.20012,9.23384 -40.36328,12.02344 l -1.875,0.77539 -3.49219,6.02149 c -4.7004,8.10414 -5.47416,14.45378 -5.23242,18.75195 0.003,0.06 0.007,0.1179 0.0117,0.17383 0.91067,-0.78303 1.85823,-1.54281 2.84375,-2.27734 l 0.32031,-0.23829 0.35937,-0.17187 c 3.94834,-1.88784 8.95049,-3.32661 13.47266,-4.33008 2.26109,-0.50174 4.38204,-0.88247 6.19141,-1.11328 0.90468,-0.11541 1.65042,-0.23154 2.40234,-0.27344 0.74531,-0.0415 1.50095,-0.006 2.42383,0.17188 2.3532,0.44571 2.86218,1.77703 3.24609,2.46484 0.0966,0.17309 0.18194,0.33872 0.25782,0.5 l 4.92187,0.14844 -3.41797,5.61719 v 0.002 c 0.58582,3.36224 1.08803,7.62856 1.47071,11.93164 0.38274,4.30365 0.64162,8.61274 0.70312,12.02544 0.0303,1.6817 0.0169,3.1309 -0.0723,4.3613 2.00687,0.1214 4.41892,0.2272 7.05665,0.2715 7.03254,0.1179 15.64926,-0.2856 22.47652,-1.7325 5.5663,-12.14401 13.1084,-25.5516 22.1934,-36.96871 9.5644,-12.01969 20.7482,-21.96554 33.5234,-25.1875 l 0.3067,-0.0781 0.3164,-0.0293 c 7.0743,-0.6522 13.2589,1.68961 17.8906,5.48633 4.6316,3.79672 7.8487,8.92252 9.9434,14.16211 l 0.123,0.31054 0.07,0.32617 c 1.1435,5.18818 0.5189,10.44465 -0.2344,15.15235 -0.6712,4.1984 -1.3611,7.8619 -1.5214,10.32617 1.5193,2.28873 3.5785,3.22522 6.7675,4.15234 1.9821,0.57625 4.3026,1.05348 6.6973,1.89063 -0.01,-0.0695 -0.01,-0.13992 -0.016,-0.21094 -0.093,-1.24233 -0.1072,-2.70943 -0.076,-4.41601 0.062,-3.41317 0.3184,-7.72234 0.7012,-12.02539 0.3827,-4.30306 0.8867,-8.5699 1.4726,-11.93165 0.293,-1.68085 0.5936,-3.11551 0.9844,-4.37109 0.1954,-0.62779 0.3923,-1.20287 0.7774,-1.89258 0.3839,-0.68776 0.8935,-2.01925 3.2461,-2.46484 0.9228,-0.17788 1.6785,-0.21338 2.4238,-0.17188 v 0.006 c 0.7519,0.0419 1.4957,0.15803 2.4004,0.27344 1.8093,0.23082 3.9323,0.61155 6.1934,1.11328 4.5026,0.99912 9.4758,2.43283 13.416,4.3086 4.7912,2.1191 8.6488,5.15377 11.5938,8.79492 1.0108,-1.23314 1.9258,-2.73039 2.5917,-4.47461 1.0483,-2.74563 1.5236,-5.71542 1.5586,-7.52539 -0.061,-0.2408 -1.2552,-2.38659 -4.1328,-4.79688 -2.9381,-2.461 -7.0731,-5.24625 -11.2539,-8.17187 -4.1808,-2.92562 -8.4138,-5.98233 -11.7539,-9.39453 -3.3402,-3.4122 -6.1526,-7.49211 -5.6933,-12.45703 0.4265,-4.62347 3.8437,-7.49393 7.6992,-10.00391 3.8561,-2.51034 8.7133,-4.71158 14.0097,-6.7832 10.5929,-4.14324 22.9526,-7.68992 31.0332,-10.38672 v -0.002 c 25.0126,-8.33754 43.0096,-14.0145 76.8536,-13.56835 l 1.623,0.0215 0.059,0.0566 c 32.2034,-1.11356 58.3571,-1.50082 77.666,-3.80078 16.3257,-1.94461 27.2538,-5.37391 33.3027,-10.7832 -7.9327,-4.34842 -15.3968,-7.02476 -22.3339,-10.46875 -8.1717,-4.05693 -15.6607,-9.73175 -20.5313,-20.54493 l -2.1289,-4.72461 5.0938,-0.95898 c 21.3579,-4.02571 35.0486,-5.49682 45.0351,-12.60156 9.9865,-7.10474 17.6787,-20.53893 26.1856,-50.52344 l 7.8476,2.22656 c -8.6831,30.6055 -16.9912,46.18701 -29.3047,54.94727 -2.038,1.44987 -4.1552,2.69693 -6.3652,3.78515 2.7899,3.17652 7.1308,7.49048 12.1523,12.15235 7.2049,6.68879 15.9042,14.37865 24.0938,22.04883 8.1896,7.67017 15.8597,15.28542 21.1621,22.12109 2.6512,3.41783 4.7341,6.61934 5.9687,9.82812 0.6931,1.8007 1.1329,3.75408 1.0469,5.67579 0.4156,-0.0358 0.8385,-0.0443 1.2735,-0.0254 h 0.01 c 3.4429,0.14948 5.0477,1.61902 8.6016,2.9707 v 0.002 c 1.9886,0.75921 3.3668,1.84415 5.7344,3.57227 2.3676,1.72811 5.3121,4.0211 8.7011,6.75781 6.778,5.47342 15.3212,12.71839 24.2559,20.59375 17.8694,15.75073 37.2002,33.87663 47.1523,45.58594 4.0983,4.82119 6.0691,7.49474 6.8594,10.80859 0.3957,1.65882 0.4822,3.07877 0.5332,4.76177 1.9466,-0.9801 3.7423,-1.6879 5.5078,-2.0606 l 0.2266,-0.0488 0.2324,-0.0215 -0.01,-0.008 c 0.9101,-0.0856 1.842,-0.11816 2.793,-0.10156 6.657,0.1159 14.1989,2.58768 20.9043,5.34178 3.8316,1.5738 7.3066,3.2765 10.0156,4.8887 1.3545,0.8061 2.5129,1.5777 3.5059,2.4023 0.9929,0.8247 2.06,1.3361 2.6387,3.7168 l 0.1035,0.4297 0.012,0.4395 c 0.3995,17.2585 -9.2785,37.4106 -13.9941,52.5957 -3.3085,10.636 -9.1758,20.8602 -15.7813,29.5293 h 0.01 c -1.2799,1.6858 -2.788,2.6144 -4.6016,3.3515 0.9724,1.0002 1.6952,2.384 2.0469,3.7168 0.4333,1.6419 0.596,3.4371 0.709,5.9668 0.1098,2.4905 -0.3486,5.5908 -1.0547,10.166 -0.7061,4.5752 -1.715,10.3338 -2.8906,16.86916 -2.3513,13.0708 -5.3635,29.2384 -7.8926,44.916 -0.4056,2.505 -0.9931,4.5287 -2.1856,6.2754 -0.3977,0.5824 -0.8647,1.0972 -1.3691,1.5469 0.6645,0.7219 1.2192,1.4965 1.6543,2.2539 1.5482,2.6946 2.3279,5.5373 3.0488,7.705 2.6448,7.933 11.5422,22.5905 16.9746,28.8692 8.5387,9.8753 14.4845,16.5148 22.6504,28.6621 l 0.6035,0.8984 c 1.2256,0.1204 2.4009,0.3639 3.4942,0.6934 3.6777,1.1085 6.5707,3.0464 8.5586,5.0391 9.3119,9.3013 40.6743,45.6745 50.5351,61.5957 1.5048,2.4274 2.4721,4.289 3.0567,6.0703 0.5848,1.7819 0.7015,3.6755 0.3027,5.2207 -0.7976,3.0903 -1.7971,3.3963 -2.1523,5.1211 l -0.1094,0.5273 c 1.6592,0.1777 3.3513,0.5403 4.7988,2.2734 0.8662,1.0369 1.2991,2.4948 1.2891,3.6661 -0.01,1.1712 -0.3046,2.1049 -0.6602,2.9531 -1.4224,3.3928 -4.1246,6.3749 -7.9785,10.8945 -7.6646,8.9886 -19.905,22.7674 -33.1934,43.2285 -0.3226,0.9574 -0.8469,2.3759 -2.0722,3.8575 -1.4684,1.7755 -3.7387,3.3393 -6.9238,4.4609 -0.2583,0.091 -0.5236,0.1786 -0.795,0.2656 l 2.8184,0.8594 -2.2598,4.3535 c -12.1844,23.4587 -18.2512,29.1022 -26.0586,52.0332 -1.7763,5.2138 -2.2461,9.4348 -2.7656,13.666 -0.5192,4.2294 -1.0914,8.5861 -3.3652,13.1367 -0.7373,1.4797 -2.3789,2.5316 -3.6504,2.8184 -1.2715,0.2983 -2.2674,0.1565 -3.1778,-0.021 -1.8206,-0.3559 -3.4188,-1.0583 -5.0117,-1.8281 -1.5929,-0.7698 -3.1189,-1.628 -4.3633,-2.3457 -1.1344,-0.6543 -1.9987,-1.1511 -2.2011,-1.2656 -6.0875,-2.1291 -11.4605,-2.1455 -16.3711,-2.4317 -2.4869,-0.1449 -4.8905,-0.3226 -7.3164,-1.248 -1.1339,-0.4326 -2.2552,-1.098 -3.2559,-1.9629 -3.753,4.8902 -7.206,9.0125 -10.4824,12.418 -4.4589,4.6347 -8.62,7.985 -12.9805,9.9863 -3.5006,1.6066 -7.177,2.2456 -10.789,1.8769 -0.313,1.1813 -1.1514,2.209 -2.3653,2.7188 0,0 -15.3587,6.4579 -33.2949,13.0781 -17.9362,6.6202 -37.929,13.479 -49.5762,14.1934 -6.4241,0.3874 -13.296,0.1054 -21.5117,-5.5664 -4.0324,3.809 -7.4367,7.8424 -9.3555,11.6894 0.8415,-0.077 1.6826,-0.1274 2.5235,-0.1523 v 0 c 7.5547,-0.2241 15.042,1.6714 21.7363,5.8985 l 0.2012,0.125 0.1836,0.1504 c 3.7545,3.0321 5.9115,7.0612 6.4726,11.1328 0.5612,4.0717 -0.3341,8.0916 -2,11.6914 -3.3318,7.1997 -9.5895,13.1377 -16.8515,15.0195 -4.2414,1.0964 -6.5219,2.1408 -9.6153,2.8359 3.5549,4.8666 8.0783,4.0772 8.5254,3.6582 8.5829,-8.0392 18.4041,-12.9448 26.6602,-15.8593 8.2562,-2.9145 14.3618,-3.9221 17.9101,-3.791 0.5629,0.021 1.1808,0.054 1.9356,0.3476 21.8734,-15.2828 34.7947,-26.3313 42.1953,-33.4961 7.5245,-7.2846 9.0918,-10.1347 9.0918,-10.1347 0.5439,-0.9354 1.4368,-1.6157 2.4824,-1.8926 0.3923,-0.1038 0.795,-0.1468 1.1934,-0.1328 0.6639,0.024 1.3174,0.2089 1.9023,0.5488 1.9482,1.1325 2.6093,3.63 1.4766,5.5781 0,0 -2.5427,4.2211 -10.4707,11.8965 -7.9281,7.6753 -21.4918,19.2264 -44.3164,35.1035 -0.6211,0.4321 -1.32,0.6684 -2.0235,0.7207 -0.1229,0.1197 -0.2424,0.2368 -0.3535,0.3594 -1.5866,1.7521 -3.7186,3.3736 -6.168,5.2012 -2.4494,1.8276 -5.1484,3.7352 -7.4296,5.4179 -2.2168,1.6351 -4.0502,3.1682 -4.5039,3.6407 0.7448,0.7058 2.5955,1.9895 4.6855,4.0625 0.1696,0.1684 0.336,0.3166 0.502,0.4453 1.4358,-1.5238 2.9283,-3.0351 4.457,-4.4883 3.9892,-3.7921 8.1676,-7.1807 12.4805,-9.3164 2.1564,-1.0679 4.5285,-1.8503 6.8925,-2.0117 v 0 c 2.3641,-0.1615 4.7199,0.2969 6.8438,1.7129 3.6336,2.4266 6.9821,6.2147 9.8828,10.33 2.9008,4.1153 5.2686,8.4167 6.2793,12.4532 1.6623,6.6546 1.5548,12.1216 -0.3848,16.582 -1.9395,4.4604 -5.5638,7.4606 -9.539,9.6074 -0.9758,0.527 -1.9804,1.018 -3.0098,1.4824 3.7332,0.3757 7.3192,0.35 10.416,-0.039 2.864,-0.3598 5.3051,-1.0161 6.9512,-1.7559 1.6462,-0.7399 2.3107,-1.5687 2.3437,-1.6387 7.6964,-16.3509 18.9078,-33.3994 30.2559,-47.7714 11.3481,-14.3719 22.6233,-25.9816 31.4141,-31.6836 l 1.0039,-0.6504 1.1933,-0.01 c 6.345,-0.037 18.1557,2.2766 32.0879,6.9121 13.901,4.6252 29.4723,11.5788 41.6836,21.3242 0.085,-0.01 0.3689,-0.04 1.0664,-0.25 1.285,-0.3863 3.3645,-1.4367 5.7598,-2.9453 1.8713,-1.1785 4.0257,-2.6588 6.3398,-4.2773 -4.4401,-0.3194 -8.143,-0.4809 -11.2363,-3.5742 -4.9578,-4.9606 -7.6561,-9.8808 -8.123,-14.7832 -0.467,-4.9025 1.4361,-9.3292 4.1835,-12.8379 3.9774,-5.0795 9.7176,-8.9016 14.9043,-12.0762 -7.4991,-0.4311 -15.2075,-1.1999 -22.2793,-2.1152 -6.2625,-0.8107 -11.9861,-1.7216 -16.5605,-2.5977 -4.5743,-0.876 -7.7154,-1.5473 -10.0371,-2.5469 l -3.7734,-1.623 1.6503,-3.7617 c 5.9697,-13.6184 13.3379,-46.4308 38.4278,-75.9356 19.7382,-23.2202 46.3912,-62.1216 79.7012,-87.1015 14.1015,-10.5745 26.9133,-29.5291 40.4238,-45.2579 -5.448,1.0992 -11.243,2.0461 -17.2598,2.6094 -8.2466,0.772 -16.5183,0.9799 -23.5469,0.3594 -7.0287,-0.6205 -12.8555,-1.5626 -16.7949,-5.502 -4.1396,-4.1395 -8.1684,-11.9692 -12.2637,-20.3476 -4.0953,-8.3785 -7.7003,-16.7901 -9.1816,-21.2227 v -0.01 c -0.044,-9e-4 -1.8447,-2.6497 -3.4043,-4.6973 -0.7987,-1.0488 -1.5863,-1.8325 -2.1582,-3.7109 -0.2859,-0.9392 -0.5334,-2.8544 0.7793,-4.4786 1.3126,-1.6242 2.993,-1.7793 4.0156,-1.7793 0.2781,0 1.3061,-0.3046 2.8281,-1.8261 1.5228,-1.5214 3.3386,-4.0417 5.17,-7.2227 3.6626,-6.3621 7.4572,-15.3347 10.957,-24.7344 3.4998,-9.3997 6.7326,-19.2457 9.4473,-27.5468 2.7146,-8.301 4.8094,-14.8741 6.4648,-18.5606 l 0.7969,-1.7734 -0.4922,-0.1641 c 4.7887,-14.3756 5.7378,-27.7655 5.3711,-46.99216 l 8.1582,-0.1562 c 0.3563,18.68256 -0.5309,32.86136 -5.1094,47.61326 35.7532,7.877 69.5627,29.5745 106.2422,44.9472 38.1292,15.9802 78.9235,25.4198 128.64259,6.9121 59.9938,-22.3333 90.393,-57.2639 102.0644,-96.0136 11.6714,-38.74956 4.4079,-81.76636 -12.7011,-119.71486 -19.9757,-44.31614 -64.3387,-76.65456 -109.3223,-80.20701 -44.98369,-3.55245 -90.91319,20.67124 -116.12109,91.89061 -13.7706,38.9094 5.9935,93.1428 46.1602,117.68746 19.0336,11.634 43.9795,18.6663 68.00579,19.2988 23.6954,0.6238 46.335,-5.017 61.8672,-17.7519 3.3933,-4.8638 6.3652,-10.4145 9.1055,-16.32416 l 11.0683,-36.1699 c 0.4268,-2.5046 0.8606,-5.0126 1.1211,-7.4473 -32.4171,33.7274 -73.1807,47.22266 -105.57809,36.9551 -34.8476,-11.0344 -60.7086,-48.3231 -48.3867,-94.0215 6.8152,-25.2835 21.9545,-41.56509 40.3398,-49.21682 18.3853,-7.65173 39.76629,-6.82631 59.41409,0.81055 39.2956,15.27374 72.072,58.41357 60.6914,117.19337 -4.2432,21.921 -11.7962,39.80276 -21.8809,53.89836 l 0.047,0.055 c -0.065,0.054 -0.1381,0.098 -0.2031,0.1524 -5.4781,7.6162 -11.665,14.1714 -18.541,19.5488 -19.6307,15.3525 -44.3094,21.5125 -70.82029,19.7773 -53.0219,-3.4705 -113.7815,-37.9991 -161.666,-94.35536 -9.4133,-11.0773 -19.0766,-22.7675 -28.004,-35.2813 1.5634,7.5998 2.8874,15.3373 3.5508,22.9902 l -8.1308,0.7051 c -1.2207,-14.0808 -4.9331,-29.0577 -8.1621,-43.1562 -0.616,-1.0386 -1.2255,-2.0829 -1.8262,-3.1328 l -0.5488,-0.9571 0.01,-1.1035 c 0,0 0.1563,-10.9824 -6.4316,-30.1367 -3.1885,-9.27017 -7.9554,-20.36449 -15.0977,-32.83399 l -0.4414,0.50586 -6.5176,-11.88672 c -9e-4,-10e-4 0,-0.003 0,-0.004 -5.8859,-9.04908 -12.9905,-18.67841 -21.5683,-28.74414 -9.0856,10.58697 -17.7434,23.10651 -26.0157,37.63476 l -5.61801,9.86252 -1.9492,-11.17969 c 0,0 -4.2665,-24.71475 -24.1191,-60.08203 C 657.6966,742.5008 622.435,696.95012 560.5312,656 c -9.0967,-2.67657 -15.1132,-4.23369 -19.7539,-5.33594 -3.7471,-0.72893 -5.9262,-1.26026 -11.4941,-2.23242 l 0.6797,-8.09961 c 0,0 0.6747,0.10542 0.7187,0.10742 v -0.0469 c 0.5636,0.0984 0.651,0.13332 1.1954,0.22852 0.8747,0.0672 1.5398,0.0308 5.1445,0.77344 1.1083,0.22831 3.0803,0.7355 4.541,1.07422 12.106,2.25534 19.3179,3.90983 23.2187,6.4414 l -0.01,0.0156 c 4.9514,1.715 10.3504,4.82573 15.1523,6.76953 21.3318,4.65096 46.4648,5.76934 69.9297,-0.34766 23.5843,-6.1481 45.4486,-19.42033 60.8711,-43.92773 l 0.037,-0.0586 0.039,-0.0586 c 5.5587,-8.1993 10.8129,-18.3036 15.1406,-29.57617 -29.1473,11.03502 -116.3603,15.93235 -145.5449,-4.82031 -5.185,-1.77378 -11.5035,-5.38145 -16.8457,-8.61524 -2.695,-1.63139 -5.0988,-3.1625 -6.8399,-4.29492 -0.8582,-0.55815 -1.5538,-1.02054 -2.0468,-1.34961 C 529.3625,550.47236 517.0503,549.539 517.0503,549.539 l 0.6875,-8.13086 c 0,0 11.6419,1.06954 33.1113,10.50195 -2.8863,-17.74911 -4.0987,-31.25448 -4.3926,-42.43164 l -1.1211,0.11328 1.0547,-7.33984 c 1e-4,-0.005 0,-0.008 0,-0.0137 0.1438,-17.70129 2.5304,-29.71438 3.25,-45.96289 l 0.019,-0.44727 0.1172,-0.43164 c 0,0 21.0895,-78.52621 26.2402,-105.57227 l 0.024,-0.11132 0.025,-0.10938 c 0,0 23.5687,-96.44455 -3.8125,-169.87109 -0.081,-0.21588 -0.1599,-0.4314 -0.2364,-0.64649 -10.692,-0.0504 -16.1601,0.19336 -16.1601,0.19336 l -0.3614,-8.15234 c 0,0 5.5882,-0.11487 14.5372,-0.0957 -0.7699,-5.68187 -0.1195,-10.96677 1.6562,-15.66797 2.6541,-7.02685 7.6513,-12.6619 13.5,-17.05078 9.7573,-7.32197 21.7213,-11.26212 31.5606,-12.56836 -4.1073,-10.48626 -6.1002,-23.60171 -5.2969,-36.78516 0.5686,-9.33084 2.5056,-18.63124 6.2129,-26.72656 z m -342.9258,42.29687 c -2.805,-0.0161 -5.5827,0.10132 -8.3633,0.20313 20.4867,10.00483 31.6226,17.81176 41.4922,30.59765 l 7.1621,9.27735 -11.375,-2.82422 c -6.9802,-1.73339 -11.0189,-1.31308 -13.1074,-0.73047 -0.1266,0.0354 -0.1154,0.0615 -0.2285,0.0977 1.0154,3.58563 3.793,13.21714 8.4687,26.20117 4.3356,12.03907 9.9893,25.18793 15.5254,34.25586 0.4457,-0.0931 0.8849,-0.18404 1.3184,-0.27149 4.4888,-12.45945 7.0778,-19.79176 12.8222,-30.76562 l 2.5762,-4.91992 3.9238,3.92968 c 4.6784,4.68288 16.6497,13.40144 30.2305,21.19336 13.5808,7.79192 29.0319,14.83158 40.7344,17.11524 l 1.4707,0.28711 0.9355,1.16992 c 2.8684,3.58814 5.5681,7.14735 8.0664,10.57226 6.4166,3.02531 10.5782,5.17383 10.5782,5.17383 l 1.0722,0.54883 21.8594,37.92383 -10.3125,-3.55469 c -5.9679,-2.05763 -11.716,-4.03449 -17.2637,-5.92773 -0.77,-0.0445 -1.5575,-0.0882 -2.3496,-0.13086 -2.8815,-0.15509 -5.8193,-0.28835 -8.1015,-0.34375 -1.1412,-0.0275 -2.1248,-0.0352 -2.8047,-0.0195 -0.4216,0.01 -0.8958,0.12509 -0.9258,0.12109 v -0.002 c 0.021,-0.0123 0.1765,-0.0635 0.5351,-0.1836 -21.8737,7.28443 -30.5408,6.3991 -54.2519,12.17383 l -3.0391,0.74024 -1.5039,-2.74219 c -4.7859,-8.72627 -8.0653,-20.34252 -10.1055,-30.5 -0.1993,-0.99265 -0.369,-1.93386 -0.5175,-2.8418 -1.3657,-0.12657 -2.8184,-0.25025 -4.3457,-0.36914 -9.669,15.29908 -7.4014,25.27112 -10.9668,40.14063 l -0.6407,2.66601 -2.7109,0.41406 c -7.8093,1.19427 -13.059,3.65013 -16.3359,5.72461 -0.1232,0.078 -0.1389,0.11336 -0.2559,0.18946 2.5375,1.28383 3.8136,1.82357 7.9434,4.21679 3.498,2.02713 7.1401,4.29624 10.2715,6.62305 3.1312,2.32681 5.783,4.48263 7.4023,7.52734 7.1468,13.387 10.8171,22.20486 9.8437,35.04688 5.4646,-3.54457 10.5759,-8.46086 14.334,-13.79688 5.2469,-7.45007 7.621,-15.49885 6.3985,-20.49414 l -0.9297,-3.79492 3.7519,-1.0918 c 21.5188,-6.2656 28.9912,-10.45271 50.3321,-13.3457 33.2328,-4.50376 76.865,-5.34123 101.248,12.6582 9.3815,4.87466 16.4082,9.48715 25.9981,15.39258 -0.1545,-0.50698 -0.1825,-0.8687 -0.3711,-1.40039 -1.5231,-4.29207 -3.905,-9.4588 -6.6153,-14.62304 -5.4183,-10.32325 -12.3439,-20.86081 -15.8222,-24.80469 -0.7553,-0.84971 -1.1712,-1.54092 -1.836,-2.5 -0.6651,-0.95908 -1.4464,-2.07221 -2.3261,-3.19727 -1.7594,-2.25011 -3.9701,-4.48973 -5.8692,-5.5039 l -4.7539,-2.53711 3.7324,-3.88672 c 6.76,-7.03976 16.0423,-11.51785 24.8516,-14.37696 4.0392,-1.31091 7.8918,-2.19161 11.4805,-2.85351 -9.8448,-5.80949 -23.2378,-10.76019 -35.2012,-14.26563 -15.8357,-4.64009 -29.1191,-6.99023 -29.1191,-6.99023 l -11.959,-2.11524 10.8105,-5.53515 c 0,0 10.8608,-5.55757 22.1758,-11.2207 5.6576,-2.83157 11.4261,-5.68971 16.0332,-7.90235 0.4432,-0.2128 0.7143,-0.33096 1.1348,-0.53125 -9.9091,-4.32235 -20.8832,-6.10668 -31.5938,-6.43164 l 3.4317,4.38086 -5.9317,1.61328 c -18.9767,5.16268 -28.6671,7.41778 -54.8789,11.25977 l -2.4492,0.35937 -1.4492,-2.00586 c 0,0 -18.6826,-25.636 -26.5254,-45.77929 l -2.0528,-5.27539 0.5,-0.0254 c -13.0167,-10.09181 -30.8086,-19.1302 -50.8496,-25.71094 -21.9205,-7.19789 -46.5047,-11.53505 -70.4043,-11.67188 z m 172.2344,40.15235 c -1.0656,-0.0428 -2.1072,0.18692 -3.1504,0.36132 -0.144,0.0171 -0.287,0.0359 -0.4297,0.0586 -0.571,-0.0363 -1.1437,0.0939 -1.668,0.38867 -0.012,1.8e-4 -0.012,7e-5 -0.012,0 0.019,-0.0397 0.04,-0.0795 0.062,-0.11914 -6.0244,1.07313 -14.9045,2.37396 -26.6816,3.38476 0.2281,0.27386 0.4532,0.54892 0.6757,0.82422 -1.0889,0.27302 -2.3674,1.84642 -4.9785,3.91602 -0.137,0.11316 0.026,0.36473 0.053,0.54492 0.037,0.24621 0.093,0.48782 0.1386,0.73242 0.1706,1.00027 0.6155,1.91801 0.9121,2.88086 0.045,0.15533 0.095,0.30642 0.1504,0.45508 -0.2338,-0.30331 -0.4646,-0.60679 -0.6972,-0.91211 0.4155,0.78082 0.7875,1.22812 1.2128,2.00195 0.01,0.0111 0.01,0.0221 0.02,0.0332 4.5643,8.30086 9.6381,16.42874 13.0312,21.48047 0.2367,0.40466 0.4928,0.79518 0.7852,1.16406 0.2492,0.36745 0.4878,0.71593 0.7129,1.04492 0.03,-0.0621 0.06,-0.12305 0.09,-0.18555 1.3476,1.26631 2.8845,2.31699 4.7656,2.59766 1.2249,0.13478 2.4701,0.2083 3.6915,-0.01 1.0236,-0.1738 2.038,-0.39374 3.0625,-0.5625 1.217,-0.24159 2.4324,-0.47257 3.666,-0.61718 1.5511,-0.17877 3.0956,-0.41663 4.6484,-0.58008 1.2919,-0.14802 2.5914,-0.25189 3.8887,-0.33399 1.2819,-0.0704 2.5619,-0.16365 3.834,-0.34179 1.1101,-0.14316 2.2393,-0.13242 3.3476,-0.30469 1.0334,-0.12371 2.0764,-0.15934 3.1016,-0.34961 1.2395,-0.25262 2.4521,-0.61345 3.5859,-1.18555 0.3366,-0.16339 0.6713,-0.32885 0.9981,-0.50586 1.1435,0.29726 3.0897,0.0231 3.9023,-0.60742 0.5911,-0.45876 1.074,-1.04174 1.6113,-1.5625 0.01,-0.16236 0.022,-0.32482 0.041,-0.48828 0.2834,-0.0731 0.5682,-0.1466 0.8535,-0.2207 -0.1244,0.009 -0.249,0.0164 -0.3731,0.0254 -0.1538,0.011 -0.3075,0.0218 -0.4609,0.0332 0.1369,-1.04157 0.3927,-2.0961 0.1269,-3.0957 -0.126,-0.47387 -0.3997,-0.86786 -0.7519,-1.19727 -0.1829,-0.91515 -0.731,-1.78212 -1.627,-2.73633 -0.2997,-0.31902 -0.7647,-0.42853 -1.1465,-0.64257 -0.1492,-0.0488 -0.2771,-0.11787 -0.3906,-0.20117 0.355,-0.033 0.7124,-0.0647 1.0703,-0.0957 -5.0817,-6.24052 -9.9519,-12.48935 -14.5918,-20.02148 -0.037,-0.20889 -0.078,-0.41845 -0.125,-0.62696 -0.4363,-1.30125 -1.0119,-2.08836 -1.8672,-2.71679 -0.175,-0.30496 -0.3521,-0.61056 -0.5273,-0.91992 -0.099,0.13224 -0.1969,0.26525 -0.2949,0.40234 -0.2456,-0.13522 -0.5091,-0.26648 -0.793,-0.40039 -1.0928,-0.52017 -2.2777,-0.70996 -3.4726,-0.78906 z m -25.5059,12.20507 c 0.2653,0.33246 0.5322,0.66359 0.7988,0.9961 -0.1279,-0.0986 -0.2568,-0.19632 -0.3847,-0.29492 -0.1001,-0.15781 -0.2022,-0.31413 -0.3047,-0.47071 -0.035,-0.0777 -0.071,-0.15427 -0.1094,-0.23047 z m -6.0234,5.53125 c 0.1509,0.12045 0.3015,0.23956 0.4531,0.35938 0.056,0.14105 0.1119,0.28114 0.1719,0.41992 -0.2088,-0.25971 -0.4162,-0.51851 -0.625,-0.7793 z m 18.1914,3.64063 c -3e-4,0.0297 2e-4,0.0601 0,0.0898 -0.01,-0.005 -0.015,-0.009 -0.025,-0.0137 0.01,-0.0251 0.015,-0.0511 0.025,-0.0762 z m 655.5234,2.17187 c -71.0513,26.78622 -158.1386,97.6702 -228.6016,163.80274 -66.4475,62.36394 -118.3458,120.39114 -129.6425,133.1875 7.5222,13.68538 11.7597,28.43324 13.4472,43.29883 2.1535,-1.04715 12.6154,-5.41684 15.8633,-6.9668 l 0.1094,-0.26758 c -0.014,0.0786 -0.025,0.15773 -0.039,0.23633 19.8963,-9.49393 51.4306,-24.60384 97.0371,-42.61914 65.3887,-25.82952 143.5181,-51.50667 197.5078,-50.61523 -32.1912,-36.21087 -41.3658,-82.96351 -32.4863,-128.00391 8.2361,-41.77676 31.9145,-82.09288 66.8047,-112.05274 z m -658.5371,5.23243 h 0.01 c 0.074,0.0642 0.1458,0.13137 0.2168,0.20117 0.01,0.0179 0.022,0.0514 0.022,0.0684 v 0.002 0.002 0.002 0.002 0.002 c -0.059,-0.0103 -0.1094,-0.0407 -0.1504,-0.084 -0.033,-0.0648 -0.064,-0.13031 -0.096,-0.19531 z m -152.5957,24.49414 c -8.2316,3.20788 -17.369,5.32313 -24.0762,6.0039 v 0.002 c -7.4168,0.74659 -14.4545,-0.32203 -20.3633,-1.94922 5.5905,5.25836 12.3158,10.85077 17.625,14.52344 4.4609,2.72181 13.0841,9.49286 25.6016,16.00585 v 0.002 c 0.4933,0.25725 3.8703,1.58579 6.8242,2.73828 l -7.2871,-15.33008 6.502,0.0391 c 12.8471,0.0804 27.5108,0.44142 40.1894,1.07032 2.5739,0.12767 5.0532,0.26251 7.416,0.40625 1.1359,-2.63517 3.5066,-7.73474 8.6563,-12.48438 l 6.6133,4.35742 c 0.029,-0.0817 0.047,-0.12607 0.057,-0.13867 0.01,0.0676 -0.1072,0.70342 -0.1172,1.48438 -0.01,1.04127 0.066,2.49161 0.2227,4.19921 0.111,1.20799 0.2644,2.54656 0.459,3.98633 2.0749,0.2838 3.8662,0.60001 5.33,0.95508 20.6867,5.0252 44.2272,12.69937 72.0059,22.17383 0.1141,0.007 0.237,0.0153 0.3691,0.0234 -2.7092,-4.50236 -6.8482,-11.12832 -12.9023,-19.4961 -11.2624,-5.23966 -28.8853,-12.88355 -42.3418,-16.16211 -11.2844,-2.74337 -19.7039,-3.22316 -29.2168,-3.13476 -8.0307,0.0763 -12.8309,0.42886 -17.8242,1.24609 -0.5123,1.40281 -1.0557,2.88443 -1.6348,4.45508 l -2.3476,6.36914 -4.5235,-5.06055 c -0.9463,-1.05883 -1.8771,-2.21144 -2.791,-3.44531 -0.084,0.0188 -0.1674,0.0377 -0.2519,0.0566 -15.8552,3.56867 -30.8711,-0.99805 -30.8711,-0.99805 l -3.4532,-1.01953 0.584,-3.55468 c 0,0 0.5121,-3.29361 1.5469,-7.32422 z m -226.88477,3.69726 c -3.42506,0.0521 -6.92299,0.55655 -10.53321,1.48633 6.8329,4.29568 12.32294,10.12906 16.58985,15.85352 4.39877,5.90137 7.77117,11.86334 9.90234,15.57617 0.0761,0.0866 0.15401,0.17141 0.23242,0.25586 0.38425,0.42015 0.85247,0.74247 1.29493,1.0957 0.24049,0.20989 0.51152,0.3853 0.75,0.59766 0.11353,0.1011 0.21717,0.21043 0.32617,0.3164 0.44964,0.41707 0.85949,0.87647 1.27148,1.33008 0.42338,0.44508 0.8683,0.86866 1.30274,1.30274 0.40156,0.39382 0.79498,0.79435 1.1914,1.19336 0.0742,0.0753 0.15059,0.14937 0.22852,0.2207 0.3764,0.20528 0.76591,0.40515 1.16601,0.5957 3.30806,1.5755 7.45242,2.98036 11.15235,3.53906 2.60635,0.39358 4.90953,0.29643 6.55469,-0.12304 0.0703,-0.0697 0.14115,-0.13917 0.21093,-0.20899 0.38725,-0.38795 0.74831,-0.80159 1.0918,-1.22851 0.35433,-0.45462 0.72943,-0.89106 1.07617,-1.35157 0.33542,-0.44264 0.63276,-0.91061 0.9043,-1.39453 0.19651,-0.32631 0.35313,-0.66974 0.48633,-1.02343 0.006,-0.67383 -0.0394,-1.45386 -0.14063,-2.36133 l -0.0703,-0.63672 0.12695,-0.62891 c -0.0377,0.18586 -0.0629,0.28631 -0.0801,0.31641 -6.4e-4,9.5e-4 -0.001,0.005 -0.002,0.006 l -0.002,0.002 h -0.002 -0.002 v 0.002 h -0.002 l -0.002,-0.002 h -0.002 v -0.002 l -0.002,-0.002 c -0.0433,-0.0905 -0.0358,-0.95043 -0.25195,-1.86523 -0.30397,-1.28675 -0.82163,-3.01437 -1.46289,-4.88672 -0.72138,-2.10625 -1.60022,-4.37629 -2.50586,-6.54492 -0.20992,-0.33523 -0.41669,-0.67292 -0.6211,-1.01172 -0.28516,-0.51626 -0.62322,-1.00414 -0.90234,-1.52344 -0.23472,-0.42987 -0.45971,-0.86519 -0.67578,-1.30468 -0.16725,-0.34229 -0.34789,-0.67685 -0.53321,-1.00977 -9.48963,-7.85549 -18.51263,-13.09609 -27.49609,-15.32031 -2.3784,-0.58887 -4.76047,-0.98032 -7.16797,-1.16016 -1.1269,-0.0842 -2.26065,-0.11698 -3.40234,-0.0996 z m 49.91406,12.46289 c -1.38752,0.38735 -2.66459,0.62093 -3.78516,0.74219 1.68656,3.59218 3.50941,8.08271 4.89454,12.12695 0.69873,2.04015 1.28451,3.95473 1.68554,5.65235 0.35792,1.51391 0.75269,2.59599 0.51758,4.36914 0.53756,6.27797 -1.65727,11.47612 -5.69141,14.0664 -4.15933,2.67069 -9.11883,2.73247 -13.8789,2.01368 -0.27373,-0.0413 -0.54696,-0.0855 -0.82031,-0.13282 11.54922,8.0933 26.56056,17.25513 39.72073,23.91016 -3.5213,-4.80409 -6.6677,-10.59393 -8.4903,-17.85938 -0.87239,-3.46582 -3.65283,-15.85011 -7.04489,-27.18359 -1.69632,-5.66772 -3.55909,-11.05031 -5.23437,-14.56836 -0.75116,-1.57742 -1.43063,-2.58409 -1.86914,-3.13672 z m -37.25977,33.30664 c -2.33508,1.78545 -4.65783,3.36651 -7,4.75391 1.75278,0.73111 3.43403,1.53017 4.98047,2.33594 1.74771,0.91062 3.31244,1.8289 4.62305,2.70703 1.30681,0.87559 2.29691,1.5492 3.29297,2.77148 1.52182,1.85986 1.04962,3.19999 0.90234,3.97266 -0.14757,0.77421 -0.36437,1.34079 -0.61718,1.94727 -0.50563,1.21296 -1.19552,2.50672 -2.04883,3.98437 -0.86106,1.49105 -1.88672,3.14561 -3.00782,4.875 l 0.0254,0.0566 -0.0898,0.043 c -1.08273,1.66746 -2.25362,3.40393 -3.45117,5.12695 -2.4658,3.54777 -5.03174,7.01923 -7.17383,9.67774 -1.07104,1.32925 -2.02361,2.44579 -2.89258,3.33984 -0.43448,0.44703 -0.83168,0.8353 -1.34375,1.23047 -0.51206,0.39517 -0.77299,1.25539 -3.26367,1.13086 -2.53832,-0.12671 -5.04285,-0.88943 -8.54687,-1.70508 -0.18386,-0.0428 -0.36888,-0.0856 -0.55664,-0.12891 -0.0895,0.16297 -0.15227,0.29398 -0.1875,0.38672 0.0447,0.0412 0.0163,0.0821 0.60156,0.33985 h 0.002 c 13.60139,5.9966 28.55527,2.89224 62.67383,12.35156 h 0.002 c 2.28498,0.63472 6.24753,1.68292 9.40821,2.54492 1.58034,0.431 2.94804,0.81189 3.89648,1.09961 0.47426,0.14386 0.68056,0.17257 1.33786,0.46484 0.1644,0.0731 0.3055,0.0619 0.9434,0.56641 0.1595,0.12613 0.36,0.2914 0.625,0.61328 0.1325,0.16094 0.2818,0.36457 0.4336,0.64258 0.1518,0.27801 0.408,1.09283 0.4082,1.09375 0,9.2e-4 0.026,1.59291 0.025,1.59375 -1e-4,8.4e-4 -0.6284,1.54807 -0.6289,1.54883 -5e-4,7.5e-4 -0.6079,0.73169 -0.8907,0.95117 -0.2829,0.21948 -0.53,0.35762 -0.7421,0.45898 -1.69729,0.81095 -1.70352,0.4113 -1.9434,0.4043 -0.23988,-0.007 -0.36798,-0.024 -0.49609,-0.0391 h -0.008 -0.01 c -16.27799,-1.95957 -44.90518,-2.70361 -75.78321,7.57031 l 0.002,0.002 v 0.002 0.002 0.002 c -0.0213,0.0535 -0.32593,0.31581 -0.64453,0.92774 -0.5257,1.00969 -1.10905,2.64779 -1.57227,4.48828 -0.0321,0.12766 -0.065,0.25572 -0.0957,0.38476 1.64119,-0.71488 3.34574,-1.35469 5.11133,-1.9121 l 0.3789,-0.11914 0.39258,-0.043 c 2.17432,-0.24481 4.56225,-0.29771 6.98047,-0.22071 2.41821,0.077 4.86698,0.28419 7.16797,0.55274 2.30099,0.26854 4.43139,0.60464 6.21679,0.98047 1.78543,0.37582 2.96719,0.54143 4.60743,1.49218 2.07527,1.20169 2.10825,2.61911 2.24414,3.39453 0.13613,0.77667 0.13323,1.38389 0.11133,2.04102 -0.0437,1.31426 -0.23023,2.76894 -0.50586,4.45313 -0.55127,3.36836 -1.4792,7.56613 -2.53125,11.75585 -1.05205,4.18975 -2.22397,8.34313 -3.28711,11.58594 -0.53157,1.62141 -1.02544,3.00188 -1.52149,4.14453 -0.0689,0.15872 -0.13758,0.3122 -0.20703,0.46289 0.49298,0.068 0.8326,0.0961 0.88867,0.15235 v 0.002 l 0.006,0.002 0.002,0.002 0.002,0.002 v 0.002 l 0.006,0.002 v 0.002 0.002 0.002 0.002 0.002 l -0.006,0.002 v 0.002 l -0.002,0.002 c -0.024,0.0351 -0.12871,0.0851 -0.32813,0.15039 4.89962,-1.59141 5.01522,-1.46994 7.16016,-4.66992 l 0.002,-0.002 v -0.002 c 0.8537,-1.27076 1.31631,-1.46121 2.07227,-2.06835 0.75595,-0.60717 1.67568,-1.28577 2.7539,-2.03711 2.15639,-1.5027 4.93298,-3.28673 7.97656,-5.07813 6.08715,-3.5828 12.93444,-7.20157 18.70899,-8.37891 l 0.008,-0.002 h 0.008 c 1.68028,-0.33955 2.72976,-0.18306 4.31446,-0.0176 1.5847,0.16549 3.35573,0.46653 5.08984,0.98242 1.73411,0.51592 3.46517,1.04297 5.11328,2.83008 0.82403,0.89356 1.60993,2.36676 1.58793,3.99805 -0.022,1.63129 -0.772,3.01729 -1.61918,4.00781 -3.51037,4.10521 -4.86904,8.85206 -6.1289,14.84766 -1.25986,5.9956 -2.34828,13.08844 -5.8086,20.6914 v 0.002 c -3.52662,7.73913 -11.45521,15.12734 -18.52539,21.26367 -3.53508,3.06816 -6.86509,5.7427 -9.27734,7.68555 -1.14226,0.91998 -2.03734,1.64512 -2.6543,2.16601 -0.15712,2.19823 -0.42505,4.44629 -0.76562,6.9336 -0.0368,0.26863 -0.0658,0.52057 -0.0898,0.75976 3.39103,-2.68473 6.15741,-5.07182 8.33594,-6.56055 v 0.002 c 3.0098,-2.05746 6.43175,-2.48288 10.80273,-2.83203 2.1855,-0.1746 4.52774,-0.22136 6.91211,-0.0977 2.38437,0.1237 4.81009,0.41784 7.16211,0.93164 4.70406,1.02761 9.31772,2.85673 12.24999,6.83789 2.8434,3.86082 3.0381,9.50001 0.2969,15.17578 -0.4146,1.74513 -1.1707,2.61123 -2.04689,3.89844 -0.98074,1.44081 -2.21279,3.01851 -3.59375,4.67383 -1.69153,2.02761 -3.5999,4.1556 -5.48437,6.13476 1.47759,-0.0619 3.07084,-0.11326 4.86328,-0.14257 0.73648,-0.82485 1.80006,-2.22417 3.00976,-4.40821 1.55757,-2.81223 3.29097,-6.47878 5.18557,-10.51953 3.7891,-8.08149 8.2116,-17.65815 13.9219,-25.61328 v -0.002 c 1.4276,-1.988 2.6071,-3.58871 3.7168,-4.87305 1.1096,-1.28434 1.6744,-2.68017 4.6523,-3.13672 1.489,-0.22827 3.5977,0.66971 4.4668,1.74219 0.8691,1.07248 1.0794,1.96699 1.2637,2.80664 0.3683,1.67647 0.4143,3.40972 0.4043,5.77148 0,0.33679 0.089,0.75673 0.9492,1.8711 0.8606,1.11437 2.4124,2.66341 4.3828,4.64453 3.9407,3.96225 9.469,9.73336 14.7832,19.05273 10.8512,19.01714 29.2702,51.86324 36.0391,68.61329 7.4054,18.32707 22.1059,47.12581 37.0312,72.64843 7.4627,12.76131 14.992,24.72613 21.6699,34.17188 3.0821,4.35948 5.9756,8.03228 8.5977,11.13086 -0.6416,-5.45439 -1.2891,-10.93085 -1.4277,-16.25391 -0.2345,-9.00006 1.3527,-18.08241 8.6054,-24.24023 5.7404,-4.86942 13.1219,-5.06466 19.7617,-5.51172 3.1627,-0.21295 6.1802,-0.46547 8.918,-0.99024 0.3368,-0.85674 0.6789,-1.6961 1.0274,-2.51562 1.8748,-4.40976 3.8944,-8.25097 6.2636,-11.26953 0.028,-0.036 0.056,-0.0716 0.084,-0.10742 -2.854,-1.42107 -5.1218,-3.44619 -6.6309,-5.93555 -2.5275,-4.1713 -2.8791,-9.17379 -1.9511,-14.09375 0.9353,-4.96473 2.1882,-10.10897 3.6933,-15.35547 -1.576,-0.38075 -2.1847,-1.01077 -3.3789,-1.80273 -1.4015,-0.92951 -2.9821,-2.15421 -4.5976,-3.63672 -3.2309,-2.96504 -6.6506,-6.87988 -8.2871,-11.76368 -0.3529,-1.05318 -0.5826,-2.12381 -0.7129,-3.21093 -0.6468,0.0556 -1.2836,0.0553 -1.8907,0.0176 -2.4421,-0.1518 -4.7496,-0.85122 -6.916,-1.70898 -2.1663,-0.85776 -4.172,-1.89609 -5.8281,-2.88086 -1.656,-0.98477 -2.8078,-1.71569 -3.9082,-2.81055 l -0.1211,-0.12109 -0.1094,-0.12891 c -11.095,-13.04809 -19.3263,-20.85503 -25.3007,-27.24609 -5.9744,-6.39106 -9.9721,-11.81137 -11.1309,-19.15039 v -0.008 -0.006 c -0.1417,-0.9162 -0.1777,-1.81055 -0.1777,-2.79492 -1.2409,0.0184 -2.7327,0.0194 -4.2403,-0.0391 -3.6227,-0.14049 -8.3142,-0.92414 -11.414,-4.85156 v -0.002 c -12.3478,-15.66435 -39.5097,-33.37416 -52.7715,-40.42188 -2.1646,-1.15008 -4.006,-3.87258 -4.084,-6.28125 -0.078,-2.40866 0.6721,-4.24416 1.5,-6.35937 1.5059,-3.84791 3.7518,-8.62518 5.6172,-15.60352 -21.2306,-33.8659 -24.377,-67.60079 -27.3164,-87.74023 -0.5059,-3.46896 -3.0725,-6.75912 -6.8067,-10.69922 -0.7526,0.0164 -1.5185,-0.17476 -2.2089,-0.5957 -24.6046,-15.0031 -55.10091,-28.85211 -70.13286,-42.53711 -0.20252,-0.1843 -0.38233,-0.38353 -0.53906,-0.59571 z m 532.54888,1.85157 -0.08,23.77929 c 8.8135,2.79934 18.4182,4.84506 28.7968,9.58399 -4.82,-7.80761 -11.3231,-15.8041 -17.5996,-22.44532 -4.2074,-4.45195 -7.9776,-8.01353 -11.1171,-10.91796 z M 47.03906,257.85351 C 35.00091,257.58863 23.33066,261.65223 14.40429,268.06445 7.67075,272.90147 2.67833,279.0255 0,285.34765 c 9.42893,-3.00436 18.83787,-3.01179 26.78906,-2.0625 5.1085,0.6099 9.64895,1.60167 13.24805,2.43946 2.92939,0.6819 4.65189,1.02855 5.7832,1.2246 0.54656,-0.58745 1.21604,-1.34447 2.06055,-2.39257 1.95791,-2.42994 4.45197,-5.80082 6.82617,-9.2168 2.3742,-3.41598 4.64483,-6.90279 6.1582,-9.52344 0.45744,-0.79213 0.66399,-1.257 0.95703,-1.83984 -0.98583,-0.65839 -2.31018,-1.44082 -3.81445,-2.22461 -2.19999,-1.14629 -4.77886,-2.27263 -7.26172,-3.11914 -0.02,-0.003 -0.0386,-0.005 -0.0586,-0.008 -0.71675,-0.0976 -1.43335,-0.19562 -2.15039,-0.29102 -0.0922,-0.0202 -0.18465,-0.0388 -0.27735,-0.0566 -0.40639,-0.13989 -0.81475,-0.28249 -1.2207,-0.42383 z m 11.69922,7.77149 c -0.0447,0.0142 -0.0887,0.037 -0.13281,0.0547 0.0228,-0.0117 0.0482,-0.0236 0.0742,-0.0352 0.0137,-0.006 0.0473,-0.0165 0.0586,-0.0195 z m 394.78712,19.6289 c -0.7004,0.006 -1.4016,0.0139 -2.1016,0.0391 -0.855,0.0362 -1.7077,0.0902 -2.5586,0.1836 -0.7118,0.0784 -1.4221,0.17374 -2.1347,0.24414 -0.2997,0.0296 -0.5996,0.0544 -0.9004,0.0723 -1.2182,0.11333 -2.4355,0.21238 -3.6582,0.26368 -2.2196,0.0931 -3.6438,2.32207 -4.6387,4.96093 -0.5571,1.47756 -0.9796,3.08317 -1.332,4.51563 -0.4206,1.70967 -0.7403,3.17142 -1.0703,3.87109 -0.064,0.26042 -0.1265,0.52149 -0.1856,0.78125 -0.574,4.46854 -0.6125,7.94414 4.6484,9.35547 0.8322,0.52246 1.7113,0.94876 2.6055,1.35352 0.7214,0.29934 1.4439,0.59026 2.1953,0.80664 0.8894,0.28585 1.7921,0.55189 2.7246,0.65039 0.892,0.13376 1.7734,0.32495 2.6602,0.48828 0.7995,0.16753 1.5974,0.33861 2.3828,0.56445 0.6441,0.1938 1.2968,0.35636 1.9375,0.56055 0.9457,0.32611 1.9105,0.59004 2.8691,0.875 1.4496,0.39803 2.9262,0.65622 4.4083,0.90234 1.2581,0.16048 2.5286,0.27208 3.7988,0.23828 1.0004,-0.0324 2.0008,-0.0787 2.9961,-0.18945 1.0879,-0.13311 2.1636,-0.32554 3.2187,-0.62695 1.0828,-0.34253 2.1571,-0.74574 3.127,-1.34571 1.0561,-0.69398 2.0914,-1.4292 2.7773,-2.51953 0.6247,-1.01467 1.1639,-2.08567 1.5098,-3.23047 1.988,-5.38308 5.0318,-12.33661 4.1484,-18.50585 -0.077,-0.53476 -2.5595,-1.31614 -3.9765,-1.33594 -0.7896,-0.0281 -1.5801,-0.0733 -2.3653,-0.16406 -1.1017,-0.12869 -2.1901,-0.32011 -3.2812,-0.51758 -1.1722,-0.21444 -2.3431,-0.44142 -3.5137,-0.66407 -1.1889,-0.2343 -2.3756,-0.47985 -3.5664,-0.70507 -1.1838,-0.23487 -2.377,-0.42107 -3.5879,-0.41407 -0.7569,-0.0197 -1.515,-0.0453 -2.2695,-0.11132 -0.8186,-0.0734 -1.6339,-0.18732 -2.4571,-0.19532 -0.7327,-0.0377 -1.4612,-0.10342 -2.1914,-0.17382 -0.7359,-0.0387 -1.472,-0.0376 -2.2089,-0.0274 z m -408.34767,0.58008 c -0.007,0.02 -0.0135,0.0405 -0.0215,0.0605 -0.008,0.006 -0.0146,0.0117 -0.0176,0.0137 h -0.002 v -0.002 -0.002 c 0.003,-0.007 0.0162,-0.0284 0.041,-0.0703 z m 0.19336,1.61133 c -0.29942,0.15447 -0.35008,0.32419 -0.35937,0.33984 0.0161,-0.0162 0.19559,-0.18136 0.35937,-0.33984 z M 445.9805,298.6875 v 0 c 0.031,0.005 0.2138,0.13421 0.3028,0.24804 -0.037,-0.0212 -0.072,-0.0421 -0.1094,-0.0645 -0.1223,-0.099 -0.1813,-0.15498 -0.1953,-0.17578 v -0.002 -0.002 -0.002 z m -332.48636,11.65234 c -0.0379,0.007 -0.15195,0.0605 -0.18555,0.0645 0.14885,0.0173 0.3652,0.0226 0.51758,0.0391 -0.0743,-0.0148 -0.12069,-0.10151 -0.32617,-0.10351 h -0.002 -0.002 z m 0.36718,0.10742 c 0.0615,0.008 0.15375,0.009 0.21485,0.0156 l -0.008,-0.002 c -0.0109,-0.001 -0.0662,-0.009 -0.20704,-0.0137 z m 322.18748,9.29883 c -0.2779,-0.0118 -0.8362,0.0837 -2.0254,1.23633 -1.2041,1.16716 -2.7334,3.28445 -4.334,6.09765 -3.1998,5.62642 -6.7619,13.96652 -10.8613,23.40235 -8.199,18.87166 -18.5788,42.23887 -34.7597,59.06836 -2.8096,2.92149 -2.8694,5.85702 -1.7735,9.04492 1.0954,3.18675 3.9242,6.10521 5.4727,6.82226 v 0.002 c 7.0047,3.23177 12.137,5.72732 16.1836,7.62695 1.6076,0.4719 3.1379,1.01504 4.6074,1.63086 1.6216,0.67955 3.1514,1.43957 4.6133,2.27539 4.8415,1.61785 9.2531,1.9862 18.1543,2 3.4539,-2.18524 9.204,-9.4101 14.4922,-19.43945 5.5739,-10.57064 11.0666,-23.96933 15.5761,-37.27735 4.5095,-13.30801 8.0456,-26.56183 9.7832,-36.77343 0.8688,-5.10581 1.2745,-9.46881 1.1875,-12.50782 -0.071,-2.46918 -0.7853,-3.80218 -0.6953,-3.9375 v -0.002 -0.002 -0.002 -0.002 -0.002 c 0.012,-10e-4 0.029,-10e-4 0.047,0.006 -8.5281,-6.59058 -23.2539,-8.61165 -35.6582,-9.26758 z m 35.791,9.34766 c 0.01,0.006 0.016,0.0125 0.027,0.0215 v -0.002 -0.002 c -0.01,-0.007 -0.017,-0.0116 -0.027,-0.0176 z m -424.2773,8.72851 c -2.01516,-0.062 -3.86655,-0.008 -5.41602,0.14453 -0.0594,0.0194 -0.11264,0.0467 -0.17187,0.0664 2.13598,-0.0529 4.50142,-0.20023 6.3789,-0.15235 -0.26418,-0.0111 -0.52989,-0.0506 -0.79101,-0.0586 z m -3.20899,8.00195 c -4.06333,0.0349 -8.7736,0.29549 -14.25586,0.875 l -3.39257,0.35938 c -10.13807,9.39283 -15.11261,23.08472 -14.68555,34.9668 7.5403,-6.26828 15.83538,-9.88475 23.14648,-11.98633 3.90859,-1.12353 7.54225,-1.85277 10.63086,-2.39063 0.12497,-1.31086 0.42513,-2.61211 0.78516,-3.92578 0.7705,-2.81143 1.97287,-5.70447 3.33398,-8.54297 1.54313,-3.21807 3.22836,-6.20735 4.8086,-8.87304 -2.89136,-0.32646 -6.30776,-0.51731 -10.3711,-0.48243 z m 537.08009,20.99414 -4.3984,21.54688 c 2.2264,0.26528 4.945,0.61909 8.1406,1.20117 4.92,0.89617 10.527,2.21509 15.7031,4.23828 -1.4327,-5.77781 -5.6673,-12.46688 -10.6133,-18.11914 -3.1335,-3.58087 -6.2694,-6.54901 -8.832,-8.86719 z M 177.832,394.0625 c -1.8733,6.19076 -3.8902,11.1672 -5.041,14.10742 -0.6233,1.59242 -0.7535,2.37208 -0.8105,2.67773 14.1853,7.58051 41.0639,24.71444 54.9726,42.35742 v 0.002 c 0.8708,1.1013 2.629,1.6475 5.3223,1.75195 1.3956,0.0541 2.7918,-0.0703 4.2558,-0.13086 0.01,-0.17676 0.019,-0.35448 0.029,-0.53125 0.2612,-4.58387 0.4945,-9.56875 0.4375,-10.39648 l -0.2168,-3.16602 0.5352,-0.17578 c -0.09,-1.26503 -0.2409,-2.44084 -0.459,-3.45313 -0.4779,-2.21829 -1.3006,-3.33312 -1.6133,-3.53515 -6.2646,-4.03492 -20.3913,-12.78947 -34.0703,-22.63672 -6.8153,-4.90482 -13.783,-10.17771 -19.0254,-13.94336 -1.8178,-1.30576 -3.0315,-2.08468 -4.3164,-2.92773 z m 878.3321,15.6875 -0.01,0.33593 c 0.071,-0.0372 0.1438,-0.0741 0.2148,-0.11132 -0.069,-0.0749 -0.137,-0.14971 -0.205,-0.22461 z m -11.709,6.85351 c -50.9977,2.27379 -123.2916,25.86357 -184.1074,49.88672 -43.2576,17.08743 -80.8096,34.31856 -101.3575,44.06641 -0.034,0.16374 -0.07,0.3267 -0.1074,0.49023 -0.013,0.0743 -0.027,0.14866 -0.041,0.22266 -0.5014,-0.01 -1.0044,0.0111 -1.502,0.0703 -5.5689,2.65044 -9.741,4.6811 -12.2578,5.91601 0.1343,2.78455 0.1833,5.56628 0.1543,8.33985 0,0.1908 -0.023,0.38154 -0.023,0.57226 -0.4751,1.08586 -0.8057,2.40728 -0.9277,3.96875 -0.184,2.35489 -0.4011,4.71177 -0.6895,7.05664 -0.3152,1.96413 -0.3996,3.96056 -0.6953,5.92579 -0.282,1.56613 -0.4559,3.14663 -0.5762,4.73242 -0.07,1.26061 -0.297,2.50609 -0.4433,3.75976 -0.178,1.52076 -0.219,3.05084 -0.252,4.58008 -0.1111,1.09508 -0.235,2.18882 -0.334,3.28516 -0.057,0.58319 -0.07,1.13825 -0.057,1.66406 0,10e-4 -10e-5,0.003 0,0.004 l -0.1914,0.45898 c 8.304,-0.458 22.0988,-0.98787 39.7793,-0.83008 47.7843,0.42647 123.9549,5.87516 196.8457,31.34375 -18.4385,-29.85718 -20.3473,-63.48348 -7.7793,-94.81054 12.2976,-30.6535 38.0891,-59.05963 74.5625,-80.70313 z M 96.26953,433.42578 c -2.00735,-0.10459 -4.01542,-0.0736 -5.8418,0.0723 -3.65276,0.29179 -6.90246,1.4711 -6.84765,1.4336 -2.30962,1.5783 -9.10209,7.82273 -17.67579,13.26171 -6.02874,3.82453 -13.23977,7.31472 -21.1582,8.88868 6.21948,4.41064 12.64744,6.88383 19.63281,7.74218 9.49641,1.16692 20.17916,-0.66067 32.33594,-4.90039 2.49869,-2.4481 5.42087,-5.54018 7.7793,-8.36718 1.26779,-1.51969 2.36933,-2.94613 3.11328,-4.03907 0.53471,-0.78555 0.83388,-1.60124 0.90234,-1.65429 h 0.002 l 0.002,-0.002 h 0.002 0.002 l 0.002,0.002 0.002,0.002 c 3.6e-4,7.3e-4 -3.1e-4,0.003 0,0.004 0.007,0.0304 -0.005,0.13516 -0.0371,0.33007 l 0.10547,-0.6289 0.29102,-0.56641 c 2.14932,-4.17173 1.6838,-5.73045 0.65234,-7.13086 -1.03146,-1.4004 -3.76397,-2.90448 -7.41992,-3.70312 -1.82798,-0.39933 -3.8364,-0.63952 -5.84375,-0.74414 z m 286.80857,5.46875 c -3.3349,0.0589 -7.0187,0.27195 -11.1191,0.65039 -0.045,0.005 -1.5417,0.51264 -3.4492,2.10156 -1.909,1.59018 -4.2938,4.08784 -6.9161,7.37109 -5.2446,6.56651 -11.4795,16.26545 -17.8671,28.44922 v 0.002 c -3.7694,7.18683 -7.5873,14.91168 -11.2168,22.85937 -0.087,0.36778 -0.1571,0.76014 -0.2071,1.17773 -0.011,0.0342 -0.01,0.0558 -0.01,0.0703 -0.2202,0.29285 -0.4336,0.5912 -0.6328,0.89844 -0.7229,1.60607 -1.2216,3.2381 -1.9258,4.85742 -0.2286,0.78246 -0.4626,1.5635 -0.6641,2.35351 -0.071,0.27652 -0.1288,0.5464 -0.1758,0.8086 -0.4805,0.99783 -0.8772,1.89574 -1.1133,2.68359 v 0.004 c -2.33,7.81356 -4.6704,14.28441 -7.2363,19.04882 -0.6287,1.16766 -1.2645,2.23866 -1.9492,3.21094 -2.4714,7.58174 -4.4584,14.94841 -5.7539,21.82617 v 0.002 c -0.6716,3.55941 -0.2671,6.4059 0.9121,8.35156 1.1791,1.94566 3.1757,3.46429 7.4121,4.10742 1.4161,0.21607 2.9096,0.43831 4.4629,0.66016 4.1903,0.44351 13.3445,1.36649 23.0996,2.05859 4.6915,0.33287 9.5207,0.60977 13.9746,0.75586 3.9974,-0.14564 7.5839,-0.5322 10.4082,-1.19531 3.9779,-0.93398 5.9835,-2.41732 6.459,-3.36914 v -0.002 c 5.6299,-11.25032 12.4278,-31.36572 19.5293,-45.55859 11.2793,-22.54905 19.4398,-42.02572 24.2734,-66.62695 -4.8626,-5.14708 -8.9991,-9.19803 -13.7265,-12.0625 -2.6731,-0.94853 -5.4198,-2.15589 -8.7559,-3.7168 -4.6649,-1.27149 -10.3638,-1.90829 -17.8086,-1.77734 z m -291.50584,3.46484 h 0.002 0.002 v 0.002 0.002 0.002 c -0.002,0.003 -0.005,0.008 -0.01,0.0137 -0.0789,0.0946 -0.15627,0.19126 -0.23047,0.28906 -0.0158,-0.0247 -0.003,-0.0626 0.0215,-0.10156 0.006,-0.01 0.0115,-0.0193 0.0195,-0.0293 0.0609,-0.0796 0.16366,-0.16169 0.19336,-0.17579 z m 161.07424,3.33789 c -0.5768,-0.0337 -1.2092,-0.0356 -1.8906,0.01 -1.6853,0.11277 -3.4979,0.48435 -5.2579,0.92968 -0.1301,2.99487 -0.4253,5.82629 -0.7109,8.10352 -0.052,0.41718 -0.1042,0.82483 -0.1562,1.21484 -0.1024,1.85688 -0.1924,3.65296 -0.2364,5.16993 -0.054,1.8402 0.018,3.45538 0.037,3.57617 0.824,5.19201 3.3597,8.77096 9.0293,14.83594 5.6338,6.02684 14.1173,14.12113 25.3379,27.28906 v 0.002 0.004 c 0,-0.0145 1.052,0.82311 2.3086,1.57031 1.3205,0.78523 3.0003,1.6494 4.6602,2.30664 1.6599,0.65724 3.3216,1.08424 4.4179,1.15234 0.6361,0.0395 0.9674,-0.0171 1.125,-0.0625 0.091,-0.13984 0.2297,-0.3603 0.3516,-0.62304 0.304,-0.65473 0.692,-1.63038 1.1035,-2.78907 0.093,-0.26316 0.1892,-0.53674 0.2852,-0.81836 0.2589,-0.99975 0.5303,-2.00421 0.8027,-3.01367 1.077,-3.99146 2.3142,-8.01581 3.2539,-11.41797 0.6399,-2.66512 1.1891,-5.16477 1.5684,-7.125 -0.031,-0.019 -0.062,-0.0375 -0.092,-0.0566 0.2303,-0.68331 0.3622,-1.40322 0.4512,-2.14257 0.084,-0.62867 0.074,-1.25541 0.01,-1.87696 -0.058,-0.0852 -0.1297,-0.18683 -0.2187,-0.32617 -0.4339,-0.6776 -1.6505,-1.98524 -2.8301,-4.13086 -2.1237,-3.86338 -10.1792,-10.4655 -18.5645,-16.1543 -8.3823,-5.68675 -16.8417,-10.64607 -21.332,-14.65234 -0.4976,-0.44227 -1.7207,-0.86685 -3.4512,-0.97461 z m -4.9942,5.03906 c 0.016,0.009 0.063,0.0391 0.084,0.0508 0.066,0.0542 0.1303,0.1079 0.1953,0.1621 -0.1027,-0.0625 -0.1963,-0.13253 -0.2793,-0.21093 z m 310.3399,28.10157 -3.127,21.78515 c 2.1753,-0.11143 4.6511,-0.22823 7.6856,-0.20703 5.0775,0.0355 10.9288,0.36858 16.4472,1.50977 -2.0965,-5.55421 -6.8865,-11.37846 -12.0918,-16.07227 -3.2295,-2.91211 -6.3534,-5.21416 -8.914,-7.01562 z m -244.4785,8.14843 c -1.0222,-0.01 -2.0428,0.0566 -3.0489,0.24805 -1.6735,0.37693 -3.0605,1.00203 -4.1445,2.29297 -0.5058,2.4289 -1.2864,5.37681 -2.0098,8.21875 0.01,0.0357 0.012,0.0761 0.022,0.11133 -0.098,0.33967 -0.2008,0.69483 -0.3008,1.03711 -0.2767,1.06417 -0.4585,1.99928 -0.75,3.06054 -0.6609,2.40663 -1.3429,4.74419 -2.0234,6.84375 -1.2625,5.36734 -1.7152,10.2253 -1.1855,11.80664 0.9035,2.69621 3.4648,5.95824 6.0664,8.34571 1.3008,1.19373 2.5992,2.18936 3.5918,2.84765 0.3466,0.22986 0.648,0.34251 0.9472,0.47071 0.057,-0.0498 0.03,-0.0228 0.1172,-0.10352 0.137,-0.1267 0.2918,-0.28895 0.4629,-0.48828 4.0743,-12.33131 9.3086,-24.98807 14.9043,-37.02734 -0.1154,-0.28982 -0.2595,-0.57369 -0.4355,-0.84766 -0.2301,-0.35799 -0.5595,-0.64074 -0.8399,-0.96094 v -0.002 -0.002 -0.002 -0.002 -0.002 c -0.023,-1.6e-4 -0.023,1.8e-4 -0.023,0 v -0.002 -0.002 c -0.1068,-0.15937 -0.546,-0.59343 -0.625,-0.67773 -0.5143,-0.51375 -1.0359,-1.02143 -1.5801,-1.50391 -0.8706,-0.76611 -1.893,-1.27913 -2.9629,-1.69727 -0.67,-0.21989 -1.3601,-0.34994 -2.0566,-0.43554 -1.2496,-0.82477 -2.5889,-1.45345 -4.1153,-1.52735 z m 11.0918,5.61719 c 0.014,0.01 0.059,0.0428 0.076,0.0586 0.01,0.009 0.019,0.0216 0.031,0.0352 -0.035,-0.0306 -0.072,-0.0625 -0.1074,-0.0937 z m -1.0684,3.71289 h 0.01 v 0.002 0.002 0.002 0.002 0.002 c -0.01,-1.3e-4 -0.01,-8e-5 -0.01,0 v -0.002 -0.002 -0.002 -0.002 z m 0.018,0.0234 h 0.035 c 0.026,0.0288 0.035,0.0593 0.062,0.0879 -0.033,-0.0331 -0.073,-0.0632 -0.098,-0.0879 z m 0.1055,0.11133 h 0.021 v 0.002 0.002 0.002 c -0.021,-1.4e-4 -0.021,-3e-5 -0.021,0 v -0.002 -0.002 z m 448.33,72.49218 c -15.4234,0.0469 -27.0454,0.59658 -33.4472,0.98829 -4.6021,15.99364 -11.2017,30.51917 -18.5762,42.24414 25.6429,15.27057 60.8315,42.37865 92.6035,70.01953 26.2916,22.87304 50.0668,45.8074 64.1367,63.20312 -6.7042,-36.13208 -0.1792,-67.06038 16.6426,-91.3789 17.7342,-25.63751 46.475,-43.78257 81.6953,-54.17383 C 898.734,573.17669 818.2609,568.8026 771.9906,568.94331 Z m -449.0136,9.34961 c -0.4102,0.0582 -1.6197,0.61334 -3.211,2.64063 -1.6479,2.09957 -3.466,5.41608 -5.1699,9.42383 -3.4078,8.01549 -6.4364,18.78633 -8.5879,28.95898 v 0.002 c -2.9156,13.77323 -2.6123,25.54612 -0.9785,34.57032 0.9574,5.28847 2.4388,9.66934 3.8906,12.85742 0.31,-0.34062 0.6362,-0.68402 0.9746,-1.0332 3.0278,-3.12427 7.2217,-6.55685 11.6504,-9.90039 4.4287,-3.34355 9.0661,-6.55603 12.8418,-9.0293 1.8878,-1.23664 3.5538,-2.28753 4.9004,-3.08789 1.3466,-0.80036 1.9533,-1.26322 3.4004,-1.74414 l -0.025,0.002 c 0.2088,-0.0699 3.1226,-1.54621 5.9649,-2.73242 1.6069,-0.67067 3.3188,-1.51289 5.248,-1.78711 -0.2744,-2.32651 -0.5636,-5.76144 -0.1934,-10.71289 0.3307,-4.44154 2.1564,-9.0012 4.6328,-13.73438 0.7107,-1.69936 1.5025,-3.41297 2.375,-5.1582 1.2747,-2.54944 2.92,-4.69528 4.6055,-6.63281 2.3904,-3.70039 4.8669,-7.31933 7.1328,-10.65235 2.6425,-3.88695 4.7011,-7.10749 6.2442,-9.7207 -3.0384,0.48666 -6.4068,0.67429 -10.6446,0.65039 -1.6578,-0.009 -3.3912,-0.044 -5.1738,-0.0996 -1.7241,0.0568 -3.4932,0.0702 -5.2949,0.0508 -3.0899,-0.0333 -6.0611,-0.62193 -9.2617,-0.83203 -0.042,-0.003 -0.083,-0.003 -0.125,-0.006 -13.1673,-0.9342 -24.5911,-2.22527 -25.1934,-2.29297 z m 67.1582,4.85352 c -0.1384,0.01 -0.2347,0.036 -0.3067,0.0508 -4.2432,3.30481 -5.0176,4.23793 -8.1035,9.38086 -1.6293,4.33146 -4.4643,7.61184 -7.0879,10.48828 -0.998,1.09422 -1.9674,2.14274 -2.8574,3.16211 -1.4371,2.23903 -2.8162,4.47365 -4.0664,6.64649 -0.8408,1.46129 -1.6155,2.90444 -2.3067,4.29492 -2.6265,6.52814 -3.6378,12.39422 -3.1972,20 0.075,0.66139 0.1379,1.30891 0.1699,1.98242 3.7192,1.51121 8.9176,4.56166 13.4258,6.86133 0.1708,0.0841 0.3465,0.18002 0.5195,0.26562 9.8842,5.06367 19.9934,10.31106 29.2969,14.96289 v 0.002 c 2.1657,1.08055 3.4453,1.21215 5.3496,0.84179 1.7194,-0.33439 4.0906,-1.38888 7.0879,-2.96679 l 0.082,-1.66602 c 0.2119,-4.31855 -0.2993,-10.10638 -0.7168,-15.59375 -0.4005,-5.23456 -0.8286,-10.00988 0.061,-14.16797 0.1063,-7.64701 2.0497,-14.56237 3.6074,-19.93164 0.7908,-2.72605 1.476,-5.07182 1.7988,-6.73633 0.2499,-1.28738 0.1299,-2.0812 0.1719,-2.1582 v -0.002 -0.002 c -1.0359,-2.02425 -2.0556,-3.03354 -3.5957,-4.02148 -1.5765,-1.01126 -3.8162,-1.90951 -6.7363,-3.11523 -5.9367,-2.4476 -11.8753,-5.07549 -16.4668,-6.78907 -2.296,-0.85687 -4.2712,-1.47813 -5.543,-1.73633 -0.2548,-0.0517 -0.4425,-0.0607 -0.5859,-0.0527 z m 772.9433,21.36328 c -6.9584,82.13512 -35.493,136.87959 -43.4941,150.92774 21.3746,-0.0222 30.7922,-2.01488 41.0176,-4.78516 0.7058,-7.12385 0.653,-14.11771 1.1035,-22.32422 a 4.0799999,4.0799999 0 0 1 4.2969,-3.84961 4.0799999,4.0799999 0 0 1 3.8496,4.29883 c -0.3689,6.71838 -0.4422,13.06683 -0.9024,19.63672 l 0.018,-0.004 -0.4199,5.74024 c -4.7997,65.7569 -15.7153,102.59361 -35.9727,144.77734 8.0122,17.7931 9.512,35.9015 12.0235,53.1973 38.2182,-59.992 47.05,-168.77408 37.5019,-228.10355 a 4.0799999,4.0799999 0 0 1 3.3809,-4.67773 4.0799999,4.0799999 0 0 1 4.6757,3.38086 c 1.3029,8.09537 2.2946,17.01667 2.9454,26.54492 0.5097,0.12348 0.8791,0.16742 1.9726,0.61718 1.6361,0.67291 4.0257,1.8344 7.4512,3.88868 5.4763,3.28414 14.6346,9.95252 26.4648,19.49218 -4.0663,-22.18636 -19.1395,-88.84349 -65.9121,-168.75781 z m -447.5781,14.50586 c -7.393,10.91042 -16.1025,19.67206 -25.6406,26.58399 5.2569,12.67496 31.0011,80.71474 20.8789,175.50585 20.6976,-32.03198 44.1209,-53.58698 71.0254,-64.49414 27.5039,-11.15019 58.359,-10.99986 92.666,-0.77929 -12.1989,-16.41082 -38.2853,-42.31252 -67.2149,-67.48047 -31.6322,-27.5193 -66.9217,-54.60955 -91.7148,-69.33594 z m -362.4609,27.35547 c -0.586,0.0153 -1.1747,0.0422 -1.7579,0.10156 -0.3741,0.0556 -0.7518,0.0936 -1.125,0.1543 -0.4687,0.0721 -0.8873,0.29419 -1.2949,0.52344 -0.3753,0.19876 -0.726,0.43742 -1.0742,0.67968 -0.4045,0.27656 -0.8162,0.54359 -1.2051,0.8418 -0.3241,0.26637 -0.6199,0.56032 -0.8926,0.87305 -0.1375,0.0505 -0.2759,0.0996 -0.416,0.14648 v 0.002 0.002 c 0.091,-0.0302 0.1412,-0.0459 0.1582,-0.0469 v 0.002 0.002 0.002 0.002 c -0.076,0.0647 -1.028,0.49903 -1.9629,1.05468 -1.1966,0.71125 -2.791,1.70922 -4.6035,2.89649 -3.625,2.37454 -8.1418,5.51104 -12.3906,8.71875 -4.2487,3.20771 -8.2513,6.52841 -10.709,9.06445 -0.6919,0.71386 -0.8797,1.05701 -1.2793,1.57813 0.8058,0.50467 1.3317,0.91651 2.5567,1.55468 0.5243,0.27315 1.0728,0.55864 1.6386,0.86719 0.245,0.75851 0.9354,1.2393 1.5664,1.66992 0.4676,0.32715 0.9649,0.60765 1.4551,0.89844 0.5039,0.29914 1.038,0.53943 1.5742,0.77344 0.4553,0.20243 0.8708,0.47113 1.2793,0.7539 0.5896,0.41206 1.1326,0.88074 1.6797,1.34571 0.5472,0.48523 1.0909,0.97687 1.6836,1.40625 0.5601,0.38575 1.1641,0.69884 1.7754,0.99414 0.3918,0.17621 0.7993,0.31509 1.1856,0.5039 0.2394,0.11084 0.4428,0.2803 0.6132,0.48047 0.3229,0.36412 0.6096,0.75629 0.8907,1.15235 0.1715,0.24503 0.3034,0.50908 0.4375,0.77539 0.1859,0.36996 0.4339,0.69216 0.7187,0.98437 0.038,0.14408 0.072,0.28934 0.1035,0.4336 1.1373,0.68271 2.1918,1.1553 3.0235,1.36914 1.0749,0.27714 1.6266,0.20909 2.2011,-0.0781 l 0.3985,-0.19922 0.4316,-0.10742 c 21.1654,-5.33403 29.7285,-6.68558 47.6328,-13.03906 v -0.002 c 6.2672,-2.21609 12.7019,-2.48181 16.1914,-4.80664 0.2781,-0.18578 0.1407,-0.12613 0.3711,-0.29687 -0.5505,-0.22702 -0.9894,-0.35043 -1.6367,-0.73047 -11.5004,-6.74879 -19.8463,-11.11984 -26.9961,-14.71094 -1.7065,-0.89205 -3.3364,-1.70264 -4.9297,-2.5039 -3.4499,-1.66295 -6.5966,-3.12351 -9.3418,-4.37305 -0.01,-0.0118 -0.012,-0.0235 -0.022,-0.0352 -0.1352,-0.29082 -0.3631,-0.5349 -0.5937,-0.75781 -0.1259,-0.1218 -0.3046,-0.17141 -0.457,-0.25781 -0.5203,-0.20414 -1.0762,-0.22184 -1.627,-0.24024 -0.4838,-0.0417 -0.9688,-0.0604 -1.4492,-0.13281 -0.6107,-0.10627 -1.2262,-0.17565 -1.8438,-0.22265 -0.6521,-0.0434 -1.3057,-0.0564 -1.9589,-0.0664 z m 329.8984,3.83984 c -9.8025,5.98936 -20.3033,10.23708 -31.0293,13.03321 -21.6246,5.63726 -44.025,5.31034 -64.1719,2.03515 49.2376,37.28495 79.0943,76.84125 96.875,108.51758 9.1136,16.23584 14.9014,30.04803 18.6016,40.5625 8.0435,-86.99179 -14.3204,-149.38648 -20.2754,-164.14844 z m -352.7383,27.89063 h 0.01 c 0,0 0.01,5e-5 0.01,0 v 0.002 0.002 0.002 0.002 c -0.01,0.007 -0.037,0.0184 -0.086,0.0352 -0.027,-0.005 -0.052,-0.0106 -0.078,-0.0176 0.053,-0.0112 0.1164,-0.0234 0.1484,-0.0254 z m -0.4336,0.34179 c 0.046,0.0307 0.086,0.0648 0.1328,0.0977 -0.02,-0.0117 -0.083,-0.0489 -0.1093,-0.0645 -0.01,-0.0104 -0.014,-0.0229 -0.024,-0.0332 z m -26.4199,3.33594 c -0.2707,0.003 -0.4262,0.0455 -0.543,0.0781 -0.3108,0.0867 -0.9603,0.59524 -2.7519,1.29492 v 0.002 c 0.073,-0.0285 0.112,-0.0429 0.125,-0.0449 v 0.002 0.002 c -0.042,0.0408 -0.7239,0.38082 -1.4219,0.81445 -0.8935,0.55505 -2.1005,1.33704 -3.5215,2.27539 -2.8422,1.8767 -6.5549,4.38547 -10.5879,7.09961 -8.0649,5.42742 -17.3811,11.66099 -23.9863,15.5293 v 0.002 c -1.3464,0.79105 -1.808,1.46412 -1.9297,1.74805 -0.1154,0.28439 -0.166,0.34468 0.096,0.95703 0.5232,1.22469 3.1825,3.95243 7.9551,6.21875 l 0.4941,0.23437 0.416,0.35743 c 0.2764,0.2377 1.5751,0.68159 4.1524,0.2871 2.5767,-0.39448 6.0136,-1.50768 9.6035,-2.96679 7.1789,-2.91788 14.8584,-7.09279 20.2305,-9.20313 5.9183,-2.32787 9.6354,-3.65351 11.9336,-4.75 2.2952,-1.09512 3.1081,-1.72103 4.5019,-3.50195 1.8287,-2.34553 4.5356,-4.60739 6.2324,-6.89453 0.072,-0.0978 0.1421,-0.19321 0.2071,-0.28711 -1.8559,-1.56015 -3.5367,-3.18709 -4.9766,-4.61914 -3.9653,-1.3762 -9.0189,-2.76562 -13.584,-4.11914 -1.1378,-0.33713 -1.8568,-0.46781 -2.33,-0.50391 -0.1183,-0.009 -0.2225,-0.0127 -0.3125,-0.0117 z M 78.24258,705.06441 c 0.30772,0.23753 0.61301,0.4821 0.91797,0.73047 l -0.25235,-0.70895 c -0.2083,-0.009 -0.40614,-0.0263 -0.66602,-0.0215 z m 388.94722,0.0469 c -8.0959,2.6064 -17.374,4.04783 -28.3046,5.99219 3.6784,5.7655 8.1987,8.97082 14.0996,11.90039 7.3633,3.65558 16.8072,6.70189 27.2832,13.25 l 3.5683,2.22852 -2.3398,3.49804 c -7.3071,10.92488 -21.9147,15.27591 -42.1445,17.68555 -18.8667,2.24728 -43.1629,2.69641 -72.7168,3.66602 1.1722,2.22372 3.0876,5.08399 5.5683,8.26758 5.4857,7.03984 13.7234,15.73776 23.0332,24.44726 18.6197,17.419 41.932,35.02457 55.5821,40.63086 4.4222,1.81107 10.6418,1.98962 17.1972,-3.36719 9.0773,-9.29956 17.9823,-17.29643 26.1699,-24.34375 10.5402,-10.68203 20.2547,-20.79359 32.1739,-28.65429 2.0599,-2.27484 3.746,-4.42737 5,-6.47266 0.1266,-0.20649 0.345,-0.88758 -0.4063,-2.83984 -0.7513,-1.95227 -2.4251,-4.69714 -4.8008,-7.75977 -4.7513,-6.12527 -12.2225,-13.60744 -20.2929,-21.16602 -8.0705,-7.55857 -16.7495,-15.22879 -24.0684,-22.02343 -6.1864,-5.74329 -11.3369,-10.65613 -14.6016,-14.93946 z m -387.55268,1.07618 c 2.23747,1.86942 4.38537,3.99083 6.33398,6.05468 1.69305,1.79318 3.20047,3.53257 4.39258,5.03321 1.1893,1.4971 1.98123,2.42158 2.66992,4 0.58805,1.34249 0.34485,2.55808 0.10547,3.24218 -0.24039,0.687 -0.50787,1.07436 -0.75195,1.41016 -0.34806,0.47882 -0.68268,0.84234 -1.03907,1.1875 l 0.53125,2.12695 -4.07617,0.78125 c -4.6e-4,3.4e-4 -10e-4,-3.4e-4 -0.002,0 -0.29319,0.21623 -0.59617,0.43624 -0.91016,0.66211 -3.22323,2.31869 -7.49459,5.09205 -11.85937,7.77149 -4.36479,2.67944 -8.79956,5.25023 -12.33399,7.13086 -1.76721,0.94031 -3.29486,1.70413 -4.57812,2.25586 -0.64163,0.27586 -1.20476,0.50111 -1.85742,0.68359 -0.20734,0.058 -0.42172,0.11542 -0.6836,0.16016 0.32289,0.56236 0.69509,1.13807 1.11328,1.73046 2.06767,2.92902 4.96178,5.77586 7.14844,8.69141 l 2.87891,3.83789 -0.46289,0.24219 89.61714,-2.2168 c -6.9153,-5.1219 -22.2795,-17.21915 -34.0253,-31.69531 -0.2754,-0.33954 -2.9846,-2.18933 -5.7696,-3.61719 -1.3925,-0.71394 -2.8227,-1.41674 -4.12693,-2.1289 -1.30422,-0.71216 -2.4375,-1.29688 -3.63086,-2.49024 -3.26677,-3.26677 -4.35229,-6.86862 -5.09961,-9.01367 -0.66203,-1.90023 -0.87549,-2.42567 -2.03711,-3.09961 -8.41796,-1.24945 -19.35937,-2.49609 -19.35937,-2.49609 z m -18.74024,2.25585 c -7.00063,0.12317 -14.6699,2.24334 -21.92773,5.83008 -8.3758,4.13923 -16.07753,10.19094 -21.49219,16.63672 20.3906,0.23205 31.62022,6.00444 37.51953,9.38867 0.90713,-0.39433 2.257,-1.05626 3.86914,-1.91406 3.30714,-1.75968 7.65002,-4.276 11.89649,-6.88281 4.24646,-2.60681 8.4194,-5.32033 11.36523,-7.43945 0.88721,-0.63823 1.35447,-1.04757 1.9707,-1.54102 -0.0752,-0.0988 -0.0441,-0.0705 -0.12304,-0.16992 -1.01633,-1.27936 -2.3968,-2.87599 -3.9375,-4.50781 -2.99183,-3.16878 -6.68748,-6.4383 -9.25782,-7.98438 -2.17378,-0.7233 -4.48991,-1.18116 -6.92578,-1.3457 -0.9696,-0.0655 -1.95694,-0.0879 -2.95703,-0.0703 z m 189.18162,8.50196 c -1.2674,-0.0477 -2.9929,0.18487 -4.6543,0.48242 -1.1813,0.72659 -19.3566,11.8877 -40.7968,22.99805 v 0.002 0.002 c -2.2403,1.15481 -4.734,1.85304 -7.3868,3.3086 -2.231,1.224 -4.1617,2.90848 -5.5996,5.03125 0.036,0.0113 0.031,0.0117 0.068,0.0234 0.9601,0.30053 2.286,0.62955 3.6465,2.09375 4.5815,4.90629 10.7368,11.7996 17.7402,17.7461 0.7974,0.67753 1.2675,0.9398 1.5293,1.07422 0.1402,-0.14425 0.3485,-0.34755 0.709,-0.86914 1.6644,-2.40924 4.18,-8.03232 9.4336,-12.90625 3.7453,-3.47607 10.8469,-8.21196 17.5761,-13.02539 3.3644,-2.40672 6.5874,-4.77742 9.0274,-6.78125 2.2551,-1.85207 3.8645,-3.80478 3.9844,-3.85938 0.7092,-1.47611 1.9655,-3.86271 2.6582,-5.99023 0.3339,-1.02547 0.4646,-1.9095 0.4746,-2.31055 -2.9418,-3.01101 -3.972,-4.01966 -6.5235,-6.66016 -0.072,3.7e-4 -0.695,-0.31337 -1.8847,-0.35937 z m 290.4043,64.92578 c -0.3184,0.0197 -1.8523,0.49048 -6.3613,3.18359 -0.7666,0.45809 -1.5251,0.92889 -2.2754,1.41016 -5.1468,5.61341 -11.812,11.28965 -19.4316,17.72656 -3.9723,3.35573 -8.2101,6.90407 -12.6348,10.70703 -1.2882,1.3022 -2.5954,2.61889 -3.9258,3.94922 -6.8249,6.82494 -18.8389,20.79874 -25.041,28.68555 0.1419,0.14237 0.09,0.12445 0.2676,0.2832 1.6762,1.49859 4.8037,3.69614 8.8593,6.19531 3.2176,1.98274 7.0335,4.18038 11.2891,6.53321 0.8225,-0.4762 1.6561,-0.91133 2.502,-1.29883 2.4054,-1.10196 5.1216,-1.77005 7.789,-1.68945 l -0.01,-0.006 c 2.6056,0.0787 5.166,0.87343 7.3496,2.67578 7.8883,5.61603 14.2896,8.42657 22.3086,14.43557 4.2165,3.1644 10.4838,5.2084 17.0703,7.457 6.5853,2.2482 13.5712,4.7231 18.8633,10.0195 1.7491,1.7475 2.9872,3.9486 3.1289,6.334 0.049,0.8224 -0.033,1.618 -0.2129,2.3731 7.1977,3.6996 13.6986,7.1302 19.0176,10.1211 0.5015,0.282 4.402,0.4744 7.8027,-0.2735 3.0201,-0.6641 5.0194,-1.4271 5.5625,-1.6269 1.4834,-1.3363 3.0619,-3.1272 4.7207,-5.209 0.7643,-1.4324 1.4758,-2.7974 2.1172,-4.0801 3.0639,-6.1278 8.2087,-11.966 13.8418,-17.0664 3.4393,-3.9181 7.2324,-7.3545 11.6386,-9.6035 -0.1715,-3.1102 -0.2601,-6.26499 -0.4843,-7.20509 -0.3097,-1.29865 -1.1869,-2.76916 -5.1387,-7.41797 -9.2478,-10.88069 -28.6089,-29.12627 -46.332,-44.74805 -8.8616,-7.81088 -17.3383,-15.00029 -23.9844,-20.36718 -3.323,-2.68345 -6.1942,-4.91332 -8.3867,-6.51368 -2.1926,-1.60036 -4.12,-2.65022 -3.834,-2.54101 -4.1673,-1.58542 -5.8069,-2.43286 -6.0488,-2.44336 -0.01,-2.8e-4 -0.015,-2.9e-4 -0.025,0 z m -494.40428,5.28906 c -3.91281,0.0643 -8.33476,0.52911 -11.3457,1.32617 -23.65573,14.94612 -31.26683,31.36142 -30.34375,45.78516 13.37977,-16.99826 33.30124,-20.7473 39.00586,-21.74805 v -0.002 c 0.0246,-0.0112 0.30279,-0.0809 0.56836,-0.19141 0.42785,-0.17803 1.04998,-0.4611 1.78906,-0.82226 1.47817,-0.72232 3.43639,-1.76291 5.56445,-3.01367 4.25614,-2.50152 9.22337,-5.89473 12.5625,-9.1543 1.66957,-1.62979 2.90638,-3.23257 3.4961,-4.42578 0.58972,-1.19322 0.55264,-1.70183 0.41406,-2.08594 -0.13858,-0.38411 -0.64348,-1.2061 -2.69141,-2.22266 -2.04793,-1.01655 -5.47491,-2.05582 -10.41601,-2.79882 l -0.41992,-0.0625 -0.39844,-0.14844 c 0.0358,0.0134 0.0566,0.0217 0.0645,0.0273 l 0.002,0.002 0.002,0.002 v 0.002 h -0.002 v 0.002 h -0.002 c -0.0844,0.0101 -1.18637,-0.23893 -2.42383,-0.33398 -1.46662,-0.11262 -3.37524,-0.17042 -5.42578,-0.13672 z m 726.49998,20.24219 c -2.4048,-0.0622 -4.7863,0.007 -7.0605,0.17187 -4.3823,0.31721 -8.1975,0.94499 -11.0762,1.50391 l 10.4668,19.08594 c 1.9205,-2.04471 4.2872,-4.52069 7.1367,-7.25977 4.157,-3.99597 8.8877,-8.18771 13.7207,-11.46289 -4.1054,-1.27986 -8.6669,-1.9222 -13.1875,-2.03906 z M 225.5609,836.6953 c -0.1452,0.62481 -0.2795,1.08817 -0.4316,1.96094 -0.5194,2.97982 -1.0143,7.11071 -1.3828,11.2539 -0.3685,4.1432 -0.6159,8.32832 -0.6719,11.44922 -0.026,1.46063 -2e-4,2.62624 0.051,3.42969 2.4793,1.76835 6.6965,4.66507 10.5293,10.13087 3.4613,4.9361 6.2856,11.914 7.3066,21.373 9.336,-7.8659 14.8381,-18.4082 15.9961,-28.205 1.3804,-11.67765 -2.8054,-21.77704 -13.7715,-26.59965 l -0.058,-0.0274 -0.059,-0.0273 c -2.9117,-1.39217 -7.6129,-2.81308 -11.7207,-3.72461 -2.054,-0.45576 -3.979,-0.79777 -5.4571,-0.98633 -0.2168,-0.0276 -0.1241,-0.0111 -0.3301,-0.0273 z M 78.82657,848.87694 c -0.20597,0.0162 -0.11324,-3.6e-4 -0.33008,0.0273 -1.47813,0.18856 -3.40312,0.52861 -5.45703,0.98438 -3.97878,0.88289 -8.454,2.246 -11.38086,3.5957 -17.13248,13.05007 -20.09478,35.78126 -13.98633,51.50586 5.06446,-8.397 11.71473,-14.5369 17.93164,-18.9219 3.95856,-2.7921 7.73261,-4.9276 10.77735,-6.5801 2.446,-1.3274 3.86455,-2.1322 4.88476,-2.75 0.0439,-0.8025 0.0714,-1.8321 0.0469,-3.1933 -0.0563,-3.1204 -0.30336,-7.30734 -0.67188,-11.45118 -0.36852,-4.14385 -0.86342,-8.2752 -1.38281,-11.25586 -0.15213,-0.87302 -0.28642,-1.33591 -0.43164,-1.96094 z M 223.1488,865.1992 c 0.026,0.23473 0.054,0.48841 0.055,0.48243 0.01,-0.0248 0.071,-0.18258 -0.055,-0.48243 z m 277.9121,0.0312 c -0.8101,-0.0107 -1.5675,0.25522 -2.3066,0.55665 -0.6744,0.30511 -1.3611,0.58146 -2.0684,0.80078 -0.6453,0.19092 -1.2997,0.34748 -1.9433,0.54494 -0.5957,0.1718 -1.1553,0.4274 -1.6973,0.7246 -0.4795,0.2617 -0.9315,0.5696 -1.3515,0.918 -0.3206,0.2619 -0.5944,0.5637 -0.8282,0.9043 -0.2425,0.4046 -0.3505,0.8686 -0.2715,1.3281 -1.4294,1.1942 -2.8567,2.527 -4.2148,3.9258 -3.5062,3.6109 -6.6156,7.6651 -8.5273,10.7226 -0.5058,0.8087 -0.6526,1.2147 -0.9707,1.834 6.981,3.3566 23.3664,10.8694 36.0839,17.6816 6.9735,3.7382 12.4212,6.9929 16.1973,8.3926 1.888,0.6998 3.2771,0.9082 4.1738,0.8242 0.8967,-0.084 1.4407,-0.2923 2.3555,-1.207 1.3583,-1.3584 2.3037,-1.6152 3.6055,-2.2031 1.302,-0.5879 2.8269,-1.1958 4.5058,-1.8613 3.3578,-1.331 7.3231,-2.8848 10.7422,-4.5762 0.2112,-0.1045 0.4206,-0.2099 0.627,-0.3164 0.4741,0.2508 1.061,-0.2137 1.3691,-0.5039 0.4991,-0.4998 0.9602,-1.0353 1.416,-1.5742 0.3703,-0.4476 0.7436,-0.8926 1.084,-1.3633 0.1176,-0.086 0.2272,-0.1749 0.3242,-0.2539 0.5067,-0.5035 0.9754,-1.0477 1.3965,-1.625 0.359,-0.4973 0.5883,-1.0616 0.7637,-1.6446 0.1511,-0.5212 0.1951,-1.0579 0.2051,-1.5976 0.01,-0.4276 -0.018,-0.8558 -0.076,-1.2793 -0.078,-0.5384 -0.3184,-0.9177 -0.6738,-1.3145 -0.2792,-0.2748 -0.5602,-0.5487 -0.8535,-0.8086 -0.3243,-0.2768 -0.7079,-0.4658 -1.0606,-0.7011 -0.3693,-0.2747 -0.79,-0.4581 -1.2148,-0.627 -0.4251,-0.1612 -0.8413,-0.3404 -1.2754,-0.4766 -0.4846,-0.1147 -0.9636,-0.2445 -1.4414,-0.3847 -0.5664,-0.1695 -1.1185,-0.385 -1.6817,-0.5645 -0.7605,-0.2285 -1.5148,-0.4739 -2.2676,-0.7265 -0.7206,-0.2477 -1.4296,-0.5291 -2.1406,-0.8028 -0.6864,-0.2763 -1.3762,-0.5408 -2.0683,-0.8027 -0.7198,-0.2831 -1.4509,-0.5367 -2.1719,-0.8164 -0.6661,-0.2378 -1.341,-0.4526 -2.0039,-0.6992 -0.6221,-0.2336 -1.2323,-0.4955 -1.8418,-0.7598 -0.685,-0.2714 -1.3719,-0.5365 -2.0567,-0.8086 -0.5555,-0.2195 -1.1051,-0.4535 -1.6503,-0.6973 -0.4883,-0.2317 -0.9664,-0.4805 -1.4493,-0.7226 -0.5248,-0.2344 -1.0222,-0.5222 -1.5293,-0.791 -0.5167,-0.2818 -1.0327,-0.5655 -1.5605,-0.8262 -0.4833,-0.2454 -0.9568,-0.5089 -1.4219,-0.7871 -0.5599,-0.335 -1.113,-0.6814 -1.6601,-1.0371 -0.6151,-0.3912 -1.2047,-0.8187 -1.7891,-1.2539 -0.6348,-0.4698 -1.2721,-0.9387 -1.9199,-1.3907 -0.5464,-0.384 -1.0933,-0.7664 -1.6328,-1.1601 -0.5589,-0.4309 -1.172,-0.7839 -1.7696,-1.1563 -0.6195,-0.3992 -1.2803,-0.7208 -1.9472,-1.0312 -0.6388,-0.3149 -1.2766,-0.6307 -1.9239,-0.9277 -0.7008,-0.3195 -1.4009,-0.6418 -2.123,-0.9102 -0.7471,-0.2601 -1.5162,-0.4493 -2.2734,-0.6758 -0.695,-0.1908 -1.3742,-0.4308 -2.0469,-0.6875 -0.7371,-0.2688 -1.4401,-0.6145 -2.1328,-0.9804 -0.6917,-0.3659 -1.3596,-0.7736 -2.0254,-1.1836 -0.4323,-0.2557 -0.8677,-0.5063 -1.3047,-0.7539 -0.3599,-0.202 -0.7388,-0.36594 -1.1055,-0.55473 -0.3681,-0.19858 -0.7376,-0.39233 -1.1152,-0.57227 -0.4821,-0.2771 -0.9981,-0.4589 -1.5371,-0.58594 -0.6335,-0.13373 -1.2777,-0.18493 -1.9239,-0.17383 z m 150.4434,9.54297 0.01,0.035 c -0.6512,-0.038 -1.2495,-0.038 -1.7832,0 -1.022,0.2598 -3.4816,1.2778 -6.3437,2.9609 -0.025,0.015 -0.051,0.028 -0.076,0.043 l 0.043,0.4511 -1.8301,0.6426 c -2.5351,1.6041 -5.3272,3.5878 -8.1055,5.8047 -1.5616,1.246 -3.1189,2.5727 -4.6289,3.9512 -1.685,1.9559 -3.3618,4.1033 -5.0059,6.3457 -3.3502,4.5694 -6.54,9.4259 -9.914,13.6855 -6.4447,12.1114 -15.5804,27.7004 -18.7266,38.168 0,0 2e-4,0.025 0,0.025 -0.5356,1.7997 -3.1695,14.5174 -3.5449,20.4258 -0.1825,2.8718 0.2516,5.0316 0.6191,5.8027 0,0 0.012,0.014 0.012,0.014 l 0.01,0.01 c 19.0548,-3.2511 33.9725,-5.6237 44.2949,-7.6679 5.2051,-1.0308 9.2786,-1.992 12.0586,-2.8848 2.3672,-0.7604 3.72,-1.7317 3.8633,-1.7324 -10e-5,0.011 0,0.01 0,0.01 6.1114,-8.0349 11.5067,-17.5326 14.4297,-26.9277 4.8524,-15.6258 13.3358,-34.8835 13.5586,-48.6601 -0.4983,-0.3915 -1.2079,-0.8987 -2.2051,-1.4922 -2.2295,-1.3268 -5.4312,-2.911 -8.9433,-4.3535 -6.0438,-2.4824 -13.2254,-4.4159 -17.7891,-4.6563 z m -570.26562,2.5977 c -0.1311,0.3123 -0.0576,0.4733 -0.0547,0.4921 0.002,-0.023 0.0307,-0.2648 0.0547,-0.4921 z m 386.19142,19.7597 v 0.01 c -0.525,-0.022 -4.4215,1.4935 -8.1543,4.2617 -3.7328,2.7681 -7.6611,6.3563 -10.5742,9.1016 -6.1393,5.784 -13.7512,13.4396 -19.8125,20.8007 -6.0604,7.3601 -10.2614,14.8912 -10.4844,17.9532 -0.1438,1.9962 0.1746,2.9256 1.0547,3.7343 0.8798,0.8085 3.0435,1.8091 7.541,1.8321 h 0.6016 c 4.6388,-0.5103 9.5644,-0.7405 14.4023,-0.6875 3.7473,0.041 7.4433,0.2527 10.9121,0.6367 l 0.4297,0.047 0.4102,0.1367 c 1.9881,0.6628 8.9945,0.9674 15.455,1.1816 3.2302,0.1071 6.4219,0.2556 9.2657,0.67 1.6736,0.2439 3.2563,0.4509 4.7558,1.0585 0.6396,0 1.2178,-0.016 1.7246,-0.037 1.0361,-0.043 1.9047,-0.2483 2.0098,-0.2363 0,2e-4 0.01,-2e-4 0.01,0 0,0 -0.01,0 -0.02,0.014 8.1249,-3.4194 12.099,-6.1428 15.8809,-10.1055 3.785,-3.9659 7.4842,-9.52 14.0234,-18.0039 0.016,-0.023 1.9951,-2.8718 3.6426,-5.7754 0.5869,-1.0344 0.9396,-1.8615 1.3027,-2.6797 -10.7397,-5.5567 -25.2198,-13.5324 -33.6836,-17.7597 -7.5801,-3.7901 -12.6664,-6.1485 -20.5254,-6.1485 h -0.086 z m 97.8594,10.4512 c -2.0875,1.6856 -4.5418,3.0071 -7.0977,4.2715 -3.8759,1.9173 -8.032,3.5301 -11.3555,4.8476 -1.6617,0.6587 -3.1169,1.2454 -4.1523,1.7129 -0.728,0.3285 -1.3155,0.7526 -1.3945,0.7696 0.012,-0.025 0.08,-0.097 0.2089,-0.2266 -2.0353,2.0353 -4.6923,3.3101 -7.3671,3.5605 -1.3634,0.1277 -2.6931,0.026 -4.0079,-0.2226 -0.028,0.089 -0.029,0.2137 -0.061,0.3027 -0.6042,1.7598 -1.5033,3.4729 -2.4551,5.1504 -1.9035,3.3549 -4.0566,6.4375 -4.0566,6.4375 l -0.062,0.08 -0.061,0.08 c -6.4607,8.3723 -10.1256,14.0151 -14.6836,18.791 -4.5579,4.7758 -9.945,8.3631 -18.789,12.0683 -0.149,0.063 -0.2927,0.1199 -0.4336,0.1719 0.4935,1.4502 0.8571,3.0077 1.2129,4.6563 0.8642,4.0051 1.4128,8.6148 1.9121,13.3535 0.9985,9.4774 1.9459,19.66513 3.7617,24.65233 l 0.4922,1.3535 -0.4649,1.3633 c -1.5927,4.6574 -1.1294,11.6772 -3.3085,17.7969 l -0.4258,1.1973 -0.1211,0.088 c 6.1136,6.3583 9.2143,16.6404 11.6308,27.248 2.67,11.7197 4.0454,23.9659 4.9278,31.4336 l 0.094,0.7988 -0.2168,0.7754 c -0.5819,2.0897 -1.9045,4.0893 -3.8027,5.1895 -1.2347,0.7154 -2.5472,1.0229 -3.8223,1.0859 -0.012,1.2739 -0.2318,2.5072 -0.6074,3.6406 -0.8819,2.6613 -2.5669,5.1886 -5.7949,6.0762 h -0.01 c -4.5207,1.2442 -9.947,1.2884 -15.4082,1.4395 -5.4636,0.1512 -10.9215,0.3753 -14.2715,1.2128 -9.6468,2.414 -19.1773,2.3603 -27.2383,3.3555 -1.1106,0.2426 -2.1821,0.2717 -3.2168,0.1426 l -2.9062,1.4512 c -7.9927,3.9908 -18.1337,6.2086 -25.2109,10.9238 -7.9201,5.2767 -18.0999,12.1619 -27.043,17.8144 l -1.9492,1.2325 -2.0606,-1.0352 c -4.1421,-2.0806 -5.2761,-6.1823 -6.0605,-9.3906 -0.7844,-3.2082 -1.4016,-6.3495 -1.6758,-6.8965 -1.428,-2.8608 -4.2931,-8.4212 -6.4238,-13.5488 -0.4721,-1.1361 -0.9103,-2.2439 -1.293,-3.3223 -10.9659,0.07 -19.6526,-0.4712 -36.5605,-0.459 -1.6106,0 -2.2875,-0.454 -3.0567,-0.8515 -0.7693,-0.3976 -1.5055,-0.8731 -2.3125,-1.4454 -1.5336,-1.0863 -3.2982,-2.5242 -5.2988,-4.289 -19.2191,-1.8754 -41.024,-9.4129 -61.4668,-23.7383 -1.8775,0.065 -3.7029,0.048 -5.4277,-0.039 -2.4479,-0.124 -4.6866,-0.3879 -6.6387,-0.8027 -1.9521,-0.4148 -3.5673,-0.8156 -5.2461,-2.0644 -1.9678,-1.4645 -3.3887,-3.3137 -4.9727,-5.4668 -2.2776,-0.2987 -4.9349,-0.6205 -8.3457,-0.9454 -3.3778,-0.3248 -5.2173,0.094 -6.332,0.7383 2.2318,0.8043 4.8156,1.4846 7.8984,2.6094 1.1239,-0.052 2.179,0.1001 3.0293,0.4258 1.4119,0.5408 2.6171,1.34 3.8067,2.3125 2.3792,1.945 4.6521,4.6398 6.4785,7.8476 1.8263,3.2077 3.2096,6.9395 3.3105,10.9649 0.1009,4.0255 -1.2994,8.3953 -4.6757,11.7715 -1.159,1.1553 -2.143,1.5633 -3.3399,2.1074 -1.1968,0.544 -2.5587,1.0577 -4.0664,1.5742 -3.0154,1.033 -6.5955,2.0588 -10.0664,2.9863 -1.7363,0.464 -3.4461,0.9019 -5.0332,1.2989 0.5354,1.2214 0.949,2.6065 1.1445,4.1797 l 86.8692,-2.5469 c -34.3636,6.6198 -64.2752,5.091 -86.8262,2.9199 0.01,0.072 0.013,0.144 0.019,0.2168 l 0.2559,2.9551 -2.7324,1.1562 c -2.6107,1.104 -7.5385,5.7835 -10.8164,10.6504 -0.4071,0.6045 -0.7939,1.2113 -1.1563,1.8125 9.628,-7.2485 21.5888,-11.6211 35.1758,-11.6211 h 0.3105 l 0.3067,0.047 c 9.1224,1.3969 15.1967,7.8051 17.0508,9.6914 1.6104,1.6023 1.3074,2.3825 1.3964,3.0625 0.094,0.6804 0.1038,1.293 0.094,1.9805 -0.015,1.375 -0.1418,3.0021 -0.3399,4.8828 -0.3961,3.7614 -1.0948,8.4823 -1.9101,13.166 -0.8153,4.6837 -1.742,9.3027 -2.6211,12.8691 -0.4396,1.7833 -0.8561,3.2853 -1.3047,4.5313 -0.2243,0.623 -0.4335,1.1694 -0.8047,1.8144 -0.1856,0.3226 -0.398,0.677 -0.8613,1.1446 -0.4633,0.4675 -1.3282,1.2444 -2.9121,1.3164 -1.7715,0.085 -3.9479,-0.075 -6.8516,-0.1582 2.3528,1.1296 5.8034,1.9736 10.3301,2.3906 3.3992,-2.2801 7.1032,-5.2645 10.6523,-8.1152 3.9335,-3.1594 7.3588,-6.0643 11.25,-7.4551 7.1205,-2.5366 19.6608,-3.6918 31.8926,-4.2285 6.1159,-0.2684 12.0458,-0.326 16.9219,-0.1524 4.8761,0.1737 8.203,0.2367 11.2598,1.4883 l 0.094,0.039 0.09,0.041 c 1.4067,0.6575 1.7549,1.322 2.1562,1.8867 0.4014,0.5647 0.7047,1.1196 1.0078,1.7383 0.6061,1.2374 1.1784,2.722 1.752,4.4941 1.1472,3.5443 2.2642,8.2023 3.0097,13.4864 1.4909,10.5684 1.594,23.6349 -3.4589,34.7402 -0.6642,1.459 -0.5157,1.471 -0.078,2.1465 0.4371,0.6755 1.8286,1.8551 3.959,2.9922 2.3561,1.2576 5.4127,2.5402 8.6152,3.9609 -2.4177,-3.475 -5.1657,-6.8523 -8.4003,-11.1016 l -0.6993,-0.9199 -0.1132,-1.1484 c -0.7321,-7.3791 4.388,-13.1256 9.5097,-17.9121 5.1218,-4.7865 11,-8.986 13.6934,-11.6836 l 0.01,-0.01 0.01,-0.01 c 0.8558,-0.85 2.0036,-1.1979 2.7735,-1.2539 v 0.01 c 0.7697,-0.056 1.2808,0.064 1.6934,0.1796 0.8251,0.2304 1.3183,0.5112 1.8359,0.8125 1.0353,0.6027 2.0419,1.355 3.1954,2.2793 2.3069,1.8486 5.079,4.3602 7.8496,7.0235 2.7705,2.6632 5.5163,5.4606 7.6953,7.8554 1.0895,1.1975 2.0338,2.2887 2.7988,3.2598 0.765,0.9711 1.3296,1.4921 1.8926,3.0586 v 0.01 0.01 c 0.11,0.3096 0.212,0.6029 0.3066,0.8809 1.0334,-2.5634 1.5782,-5.2258 1.1641,-7.2637 -0.053,-0.05 -0.3368,-0.7056 -0.7598,-1.3203 -0.6147,-0.8935 -1.5211,-2.114 -2.5996,-3.5293 -2.157,-2.8305 -5.0096,-6.4589 -7.8691,-10.3144 -2.8596,-3.8554 -5.7293,-7.9324 -7.9825,-11.8008 -2.2531,-3.8685 -4.0495,-7.3394 -4.2109,-11.2129 -0.1997,-4.9313 2.9917,-9.257 7.3945,-11.7285 4.4028,-2.4716 10.1672,-3.9732 17.4864,-5.2793 14.6383,-2.6123 35.5308,-4.1808 61.9785,-7.1621 11.2932,-1.2768 28.8028,1.9419 48.623,6.5527 19.8202,4.6108 41.622,10.7641 59.8672,15.8828 15.3035,4.2974 27.1374,5.6796 35.3242,6.0039 -1.4888,-1.0493 -2.9357,-2.0356 -4.6152,-3.3633 -9.9758,-7.8862 -23.317,-21.0106 -37.1406,-42.041 l -0.8106,-1.2324 0.166,-1.4648 c 0.9201,-8.1725 7.0955,-16.5822 13.6192,-27.6465 l 0.3437,-0.5821 c -0.1711,-0.6612 -0.2939,-1.3117 -0.3652,-1.9609 -0.2572,-2.3415 0.3548,-4.6992 1.4805,-6.3691 0.8667,-1.2857 1.824,-2.222 2.7636,-2.9629 -4.1445,-2.0469 -6.8415,-3.321 -9.1074,-5.5039 -2.5305,-2.4378 -3.4474,-5.7927 -3.875,-9.6289 -1.2602,-11.2963 2.1424,-28.767 6.25,-45.5118 4.1076,-16.7448 8.9708,-32.16423 11.5586,-38.48633 0.9528,-2.325 2.7291,-3.493 4.5156,-4.418 0.7207,-0.3731 1.4824,-0.7075 2.2872,-1.0136 -0.9644,-2.5812 -1.1557,-5.4872 -0.9473,-8.7676 0.4644,-7.3089 2.7669,-18.5387 3.873,-22.2481 2.3798,-7.9226 7.0821,-17.2187 11.8008,-25.9355 -0.1611,0.037 -0.3226,0.073 -0.4863,0.1094 -4.0792,0.8971 -8.9382,2.0139 -13.5567,-0.584 -5.4223,-3.0489 -12.2041,-6.6172 -19.7714,-10.4961 z m 245.248,0.2344 c -3.9606,-0.2364 -7.3457,-0.1085 -10.2207,0.047 l 11.6309,18.9747 c 1.6359,-1.5371 2.2666,-2.2628 5.4355,-4.8653 3.7587,-3.0869 8.2561,-6.4513 12.9551,-9.1347 -5.5031,-3.1006 -12.9614,-4.5991 -19.8008,-5.0215 z m -381.1738,55.1875 c -6.1431,0.6166 -11.5947,1.6452 -14.8789,2.9101 -1.5705,0.6039 -2.1434,1.1322 -2.4141,1.5235 -0.2708,0.3912 -0.4891,0.941 -0.4531,2.3828 0.071,2.8829 1.6369,8.5341 4.0039,16.7988 0.8791,3.0553 1.4463,7.1796 2.1426,11.2207 0.6963,4.04113 1.6849,8.10213 2.1953,9.12313 0.2743,0.5501 1.4728,1.7105 3.1738,3.0078 1.3342,1.0175 2.9051,2.2841 4.2559,4.082 1.7465,1.0472 5.2533,2.378 8.959,3.4883 0.3267,0.098 0.654,0.195 0.9804,0.291 1.9696,0.2648 4.1371,0.6379 6.3535,1.0391 5.8824,1.0647 12.6211,2.2695 14.0586,2.2695 5.9974,0 12.8571,0.7994 18.8223,1.9726 1.8823,0.3703 3.6704,0.7765 5.3223,1.2168 1.6222,0.037 2.9394,-0.1382 3.8437,-0.2929 0.718,-3.4334 0.9726,-8.8671 2.6406,-14.5606 -2.2437,-7.0502 -2.9095,-16.45423 -3.8339,-25.22853 -0.4908,-4.6575 -1.0352,-9.0649 -1.7735,-12.4863 -0.6099,-2.8268 -1.5312,-4.9309 -2.0234,-5.7676 -0.507,-0.01 -1.0311,-0.024 -1.5703,-0.041 -4.7182,-0.1456 -10.6351,-0.5217 -16.9414,-0.959 -11.4815,-0.7961 -24.3018,-1.7924 -32.8633,-1.9902 z m 215.6972,10.5586 h -0.01 c -11.9664,2.4834 -26.5878,4.0212 -38.7735,5.711 -6.3399,0.8792 -11.9935,1.8202 -15.9863,2.8847 -1.9963,0.5322 -3.5784,1.1108 -4.5039,1.5899 -0.55,0.2848 -0.7725,0.5085 -0.8125,0.5215 -2.2035,5.4844 -7.1175,20.92063 -11.082,37.08203 -4.0249,16.4077 -7.0161,34.1485 -6.0664,42.6621 0.3724,3.3429 0.5461,3.8069 1.4277,4.6562 0.8718,0.8398 3.5223,2.2834 8.4805,4.7676 -0.019,-0.011 -0.029,-0.019 -0.039,-0.029 0.075,-0.022 0.8046,0.1278 1.8399,0.021 1.3899,-0.1428 3.3455,-0.5353 5.5859,-1.1289 1.9463,-0.5158 4.1138,-1.1787 6.4023,-1.9414 3.8803,-1.6205 8.2281,-3.3807 12.6309,-5.1055 3.8865,-1.5224 7.8115,-3.0166 11.4941,-4.3633 4.974,-2.1643 8.7367,-3.9102 9.8575,-4.4707 4.9336,-2.464 8.7596,-2.9644 10.0293,-3.4433 0.635,-0.2395 0.539,-0.1964 0.705,-0.4395 0.1657,-0.2429 0.5667,-1.0989 0.8711,-2.9765 2.5507,-15.8124 5.5744,-32.0314 7.918,-45.0606 1.172,-6.51463 2.173,-12.23323 2.8574,-16.66803 0.6844,-4.4337 0.9968,-7.873 0.9668,-8.5585 -0.1002,-2.2454 -0.2929,-3.5984 -0.4394,-4.1758 -0.1627,0.052 -1.4395,-0.4642 -3.3575,-1.5235 z m -211.873,52.09573 c -0.3521,0.703 -0.5068,1.6391 -0.078,3.5898 0.5807,2.6432 2.2016,6.2435 4.2773,9.9238 4.0339,7.1522 9.5021,14.2085 12.0098,19.4102 5.8726,2.9903 14.388,7.6726 23.1152,12.8672 0.138,0.08 0.2891,0.1407 0.4258,0.2207 1.7626,1.0335 4.1458,2.716 6.2129,4.1426 5.2411,3.2993 10.7656,6.6005 14.9746,9.8418 2.6927,1.4571 5.0658,2.3821 6.2734,2.5351 0.4629,0.059 0.4029,0.033 0.4629,0.022 -0.8897,-7.5465 -2.2021,-18.7119 -4.6172,-29.3125 -2.53,-11.1054 -6.6926,-21.224 -10.8418,-24.5918 0,0 -1.3988,-0.7891 -3.3007,-1.4062 -0.4744,-0.154 -0.9855,-0.3076 -1.5274,-0.461 -3.5394,-0.1589 -7.5075,-0.6437 -11.5762,-1.207 -8.9065,-1.2334 -18.5604,-2.7971 -22.9218,-2.6035 l -0.7539,0.033 -0.7129,-0.2364 c -2.0796,-0.6905 -5.3987,-1.5609 -8.8887,-2.5703 -0.3846,-0.049 -0.7486,-0.09 -1.0898,-0.125 -0.6558,-0.062 -1.0203,-0.062 -1.4434,-0.072 z m -209.8145,10.0742 c -7.0447,0.3792 -13.0956,2.321 -17.6796,5.0683 8.7067,2.2278 15.4576,7.4159 20.5,12.7188 3.38,3.5546 6.0819,7.1877 8.2675,10.1191 2.1626,2.9005 4.0486,5.1338 4.5879,5.5528 v 0 c 0.033,4e-4 0.2372,0.092 0.5683,0.2148 -0.1741,-0.1503 -0.3476,-0.3017 -0.5214,-0.4531 l 2.1894,0.9316 c 1.366,0.2804 3.1861,0.5042 5.2227,0.6075 4.2039,0.213 9.3543,-0.085 13.8574,-1.0645 4.5031,-0.9799 8.2619,-2.7518 9.9394,-4.5664 1.6776,-1.8146 2.2632,-3.2611 0.3633,-7.334 l -0.2597,-0.5586 c 0.01,0.071 0.014,0.1104 0.012,0.1231 v 0 0 0 0 0 0 c -0.041,-0.044 -0.2301,-0.5435 -0.6816,-1.0215 -0.7742,-0.8194 -2.016,-1.9484 -3.4473,-3.1875 -2.6907,-2.3293 -6.0139,-5.1 -8.8184,-7.9316 -10.5511,-6.9666 -23.1532,-9.8097 -34.0957,-9.2207 z m 411.25,27.7578 -0.01,0.01 c 0.039,0.021 -1.3463,0.2064 -2.9805,0.6582 -1.7398,0.4809 -4.0119,1.2014 -6.5918,2.08 -1.9105,0.6506 -3.9928,1.3889 -6.1777,2.1856 -4.3771,1.902 -9.6505,4.1044 -15.043,6.1816 -3.1729,1.2223 -6.3665,2.3923 -9.4277,3.418 -1.6078,0.6726 -3.1256,1.318 -4.5215,1.9219 -2.3873,1.0328 -4.4196,1.9472 -5.8926,2.6523 -1.1393,0.5454 -2.1884,1.2344 -2.2734,1.2344 0.012,-0.022 0.076,-0.082 0.1992,-0.1856 -2.7098,2.2783 -4.8525,3.492 -5.166,3.9571 -0.1568,0.2325 -0.2158,0.1781 -0.1348,0.916 0.081,0.7379 0.5165,2.2278 1.7383,4.4473 5.9743,10.8567 16.5308,24.2161 28.1445,35.705 11.6109,11.486 24.4322,21.1325 34.1817,24.9258 0.028,-0.01 0.1277,-0.041 0.4394,-0.1738 0.5976,-0.2543 1.6934,-0.9663 3.0254,-2.084 2.6639,-2.2354 6.2766,-5.9589 10.9414,-9.9492 4.9144,-4.1983 10.9531,-7.6923 15.918,-10.4785 2.3335,-1.3095 4.3476,-2.4181 5.9062,-3.336 -6.6639,-9.5264 -12.0734,-15.8688 -19.7304,-24.7246 -6.5072,-7.5208 -15.2092,-21.6215 -18.5449,-31.6289 -0.79,-2.3721 -1.5595,-4.789 -2.3809,-6.2187 -0.8113,-1.4118 -0.9387,-1.5098 -1.6133,-1.5098 z m -355.3183,1.248 c -0.533,2.1612 -1.5637,4.1021 -3.0059,5.6622 -3.6046,3.8991 -8.7966,5.8268 -14.1972,7.0019 -0.7152,0.1556 -1.4349,0.2958 -2.1582,0.4219 l 48.957,20.8359 c -3.4376,-3.2706 -7.2877,-7.193 -11.2598,-11.5273 -6.2254,-6.7932 -12.7359,-14.5475 -18.3359,-22.3946 z m 164.9238,0.3379 c -0.1215,0 -0.3135,0.01 -0.5644,0.049 -0.7506,0.1296 -1.871,0.4706 -3.0235,0.9199 -2.1266,0.8293 -4.1783,1.9113 -5.5586,2.6113 -7.897,6.7494 -10.9496,11.555 -12.6211,16.6016 -0.2481,0.7636 -0.2127,1.8978 0.09,3.2344 1.1021,1.5531 2.271,3.2921 3.4824,5.166 1.462,2.2617 2.9221,4.6439 4.2363,7.0136 0.9806,0.8665 1.9586,1.601 2.8594,2.1485 1.8118,1.1004 3.1966,1.1994 3.2676,1.1894 l 0.2363,-0.059 0.2402,-0.029 c 8.8763,-1.1187 18.0683,-1.0958 26.4805,-3.2011 4.8499,-1.2125 10.5589,-1.302 16.0254,-1.4532 5.3077,-0.1468 10.4135,-0.3877 13.2129,-1.0918 0.033,-0.07 0.3187,-0.318 0.4844,-0.8183 0.2017,-0.6143 0.1785,-1.3493 0,-2.043 -1.1688,-1.0286 -2.5176,-2.1202 -4.0098,-3.2558 -0.1445,-0.084 -0.2904,-0.1689 -0.4355,-0.2539 -5.8059,-3.4136 -12.0152,-8.0567 -16.5879,-11.1485 -2.0138,-1.2367 -4.0513,-2.4598 -6.0723,-3.6523 -3.9311,-2.1119 -8.3957,-4.2296 -12.3359,-6.2344 -2.4745,-1.2589 -4.7419,-2.47 -6.6504,-3.7109 -0.9907,-0.6442 -1.921,-1.2141 -2.7481,-1.9649 l -0.01,-0.014 z m -240.0332,8.295 c -3.7227,-0.1144 -11.9155,1.9582 -20.9433,7.5605 -4.8069,2.9782 -9.9523,6.9159 -13.7325,10.543 -0.3245,0.3113 -0.4526,0.5437 -0.7558,0.8496 1.0303,-0.038 2.0653,-0.1332 3.1621,-0.1602 4.0272,-0.1067 7.6596,-0.5246 11.6523,0.8789 5.8104,2.0518 11.1039,6.1058 15.1699,9.6211 2.9906,2.5856 4.0457,3.796 5.0606,4.8633 1.5786,-0.3581 5.3665,-1.1971 11.0312,-2.7109 3.3678,-0.9 6.825,-1.896 9.5293,-2.8223 1.3521,-0.4632 2.5201,-0.9143 3.336,-1.2852 0.5851,-0.2657 1.0059,-0.5696 1.0605,-0.5839 v 0 0 0 0 c 1.7113,-1.7691 2.2236,-3.5121 2.1699,-5.668 -0.055,-2.2086 -0.9155,-4.7973 -2.2441,-7.1308 -1.3287,-2.3335 -3.1238,-4.3998 -4.5508,-5.5664 -0.5705,-0.4664 -0.9536,-0.6577 -1.2481,-0.8067 l -0.6933,0.3457 -1.6836,-0.6542 c -5.2673,-2.0462 -11.0357,-2.764 -16.3262,-7.2754 z m 205.5781,14.8769 c -0.8954,-0.01 -2.0471,0.078 -3.457,0.3633 -3.7596,0.7602 -8.7195,2.5383 -13.8496,4.6953 -9.2917,3.9069 -18.533,8.6449 -25.2051,11.1074 0.3031,1.2684 0.9037,3.1142 1.7871,5.2403 1.9343,4.6549 4.7075,10.068 6.1895,13.0371 1.5221,3.0404 1.6765,6.0322 2.3066,8.6093 0.241,0.9855 0.5263,1.6218 0.7988,2.2461 8.0243,-5.1537 16.7945,-11.0104 23.8614,-15.7187 7.4361,-4.9543 16.0158,-7.3883 22.414,-9.9043 -0.3648,-0.7497 -0.7526,-1.5215 -1.1621,-2.3066 -0.8581,-0.8458 -1.6861,-1.7463 -2.4765,-2.6915 -2.7619,-3.3029 -5.2734,-7.1681 -6.3965,-11.2597 -1.165,-1.5476 -2.0835,-2.6714 -2.4805,-3.0684 -0.047,-0.047 -0.5543,-0.2325 -1.5195,-0.3125 -0.2413,-0.02 -0.5121,-0.037 -0.8106,-0.037 z m -176.3222,43.6582 c -31.4873,0.2248 -52.5319,27.2758 -51.9922,57.0156 10.1163,-10.4317 22.4326,-15.3722 33.2695,-17.4707 6.6523,-1.2881 12.7772,-1.5859 17.6172,-1.5859 3.6261,0 5.4783,0.1052 7.1289,0.1602 0.2289,-0.7483 0.45,-1.4349 0.7266,-2.5567 0.8049,-3.2654 1.7149,-7.7726 2.5058,-12.3164 0.791,-4.5438 1.4686,-9.1507 1.834,-12.6211 0.1808,-1.7171 0.279,-3.1558 0.291,-4.0762 -2.1162,-2.0712 -6.1742,-5.6567 -11.3808,-6.5488 z m 451.0312,3.1445 c -1.0828,0.05 -2.1717,0.3226 -3.2734,0.8946 -8.2941,4.3022 -16.015,9.4314 -21.7403,13.8379 -2.8627,2.2034 -5.231,4.2323 -6.8867,5.83 -1.3494,1.3021 -2.2449,2.6469 -2.375,2.7129 0,-0.018 0.011,-0.068 0.041,-0.1445 -1.2494,3.1325 -3.1445,4.5856 -3.8593,5.8047 -0.3582,0.611 -0.4102,0.9342 -0.4102,1.0371 0,0.1027 -0.069,0.2244 0.4942,0.9043 4.4891,5.4054 10.7272,14.5659 17.5195,23.7461 6.793,9.1812 14.1885,18.3412 19.8984,22.9961 1.3698,1.1209 1.9397,1.6652 2.9551,2.0351 1.0153,0.37 2.8089,0.6739 6.4883,0.1524 9.6752,-1.3771 24.1809,-6.6058 50.0722,-8.7266 0.6392,-1.5164 1.2403,-2.5586 1.2403,-2.5586 0,-0.034 -0.017,-0.17 -0.1699,-0.6367 -0.2467,-0.7518 -0.9179,-2.1804 -2.2422,-4.3164 -8.6205,-13.9196 -41.2176,-51.9826 -49.3653,-60.1211 -0.9318,-0.9351 -2.9766,-2.3392 -5.1425,-2.9922 -1.083,-0.3262 -2.1607,-0.5011 -3.2442,-0.4511 z m -439.6738,2.5332 v 0 0 c -0.018,0.028 -0.057,0.1524 0.018,0.3867 0,-0.1304 -0.012,-0.3737 -0.012,-0.3887 v 0 z m 117.543,54.8907 c -3.5536,3.1454 -7.8644,6.4019 -11.6309,9.9219 -4.1281,3.8577 -6.6051,7.6203 -6.8418,10.3124 5.906,7.6738 10.972,13.641 15.0586,23.6973 -0.1782,-0.4386 0.9018,1.5279 1.998,3.7285 1.0963,2.2007 2.3711,5.1639 3.2969,8.791 1.198,4.6932 1.6011,10.6153 0.5293,17.2676 3.3641,-3.2716 6.9793,-7.5258 10.0039,-12.0918 2.0914,-3.1627 5.3266,-9.8306 7.4961,-16.3476 2.1689,-6.5142 2.8777,-13.2748 2.2149,-15.1836 -2.2939,-6.5596 -1.9994,-7.3304 -3.4688,-11.5469 v 0 0 0 c -0.047,-0.042 -0.3238,-0.5772 -0.7168,-1.0762 -0.5745,-0.7293 -1.4193,-1.7142 -2.4239,-2.8184 -2.0092,-2.2082 -4.6644,-4.9156 -7.3164,-7.4648 -2.652,-2.5493 -5.3237,-4.9576 -7.2949,-6.5371 -0.4023,-0.3224 -0.5664,-0.4066 -0.8984,-0.6504 z m 375.8418,25.6133 v 0 c -0.7039,-0.01 -1.3793,0.02 -2.0098,0.078 -1.261,0.1157 -2.3376,0.3603 -3.0898,0.7364 -5.16,2.5828 -12.9518,3.3594 -21.0313,4.5625 -4.0403,0.6016 -8.0316,1.2087 -11.3418,1.8789 -3.3102,0.6702 -6.0268,1.5294 -6.9257,2.0273 -5.4796,3.0295 -7.2728,5.7577 -9.0235,10.4434 -1.7507,4.6857 -3.0023,11.3799 -6.2148,20.2558 l -0.082,0.2246 -0.1075,0.2149 c -0.4075,0.8129 -2.4768,7.1147 -3.6465,12.3047 -0.4953,2.1978 -0.79,4.0823 -0.9765,5.6308 16.1913,0.997 25.0653,-0.05 29.082,-1.4648 2.1536,-0.7584 2.942,-1.4786 3.3457,-1.9668 0.4038,-0.4882 0.5254,-0.8588 0.8418,-1.8242 l 0.1641,-0.502 0.2871,-0.4453 c 13.7148,-21.1772 26.4631,-35.5075 34.0527,-44.4082 2.9429,-3.4513 4.1711,-5.2812 5.166,-6.7891 -2.0281,-0.2751 -4.0739,-0.6372 -6.3105,-0.8457 -0.7416,-0.069 -1.4739,-0.1032 -2.1777,-0.1132 z m -64.004,67.0644 -0.01,0.01 c -0.8089,0.027 -1.5624,0.089 -2.2422,0.1895 -2.7193,0.4003 -3.6692,1.1228 -4.0078,1.9004 -5.006,11.506 -10.0115,24.6339 -18.6817,38.6562 l -0.035,0.059 -0.039,0.059 c -1.041,1.5614 -2.6148,3.4004 -4.5898,5.8223 -1.9749,2.4218 -4.2677,5.2729 -6.332,8.1406 -2.0659,2.8677 -3.8944,5.779 -4.92,8.084 -0.9338,2.0889 -0.8868,3.4622 -0.9238,3.584 0.4214,0.9192 0.6159,1.0466 1.5176,1.3906 0.9082,0.3464 2.6084,0.594 4.8828,0.7266 4.5488,0.2633 11.2475,0.2312 18.873,2.9589 l 0.2286,0.082 0.2148,0.1074 c 0.8891,0.4421 1.6846,0.9505 2.8574,1.6269 1.1729,0.6764 2.5521,1.445 3.8379,2.0664 0.725,0.3504 1.134,0.449 1.707,0.6583 0.9178,-2.532 1.4475,-5.1363 1.8497,-8.4102 0.5097,-4.1583 1.0656,-9.2174 3.1386,-15.3027 7.4889,-21.9958 13.8233,-29.6693 24.1426,-48.7969 -3.567,-1.0304 -8.0539,-2.2241 -13.1562,-3.0039 -1.9733,-0.3014 -3.9309,-0.505 -5.7364,-0.584 -0.9027,-0.04 -1.7672,-0.049 -2.5762,-0.022 z m -165.9062,75.6543 c -0.8985,-0.012 -1.4572,0.066 -1.5684,0.1133 -0.3124,0.1355 -0.6092,0.269 -0.8906,0.4004 3.035,0.7537 5.9169,1.7293 8.5,2.9726 3.5239,1.205 5.7937,4.2116 6.9922,7.3809 1.2061,3.1898 1.576,6.7696 1.4102,10.457 -0.3316,7.3749 -2.6812,15.2671 -7.8614,20.4473 -0.6129,0.6129 -1.269,1.1192 -1.959,1.5391 10.2564,-1.9654 27.2557,-7.5035 42.1211,-12.9903 9.7508,-3.599 18.7403,-7.1521 24.8594,-9.623 -6.8903,-0.5131 -16.1303,-1.5967 -27.4433,-5.5039 -10.4588,-3.6136 -20.9384,-8.1259 -29.5118,-11.2969 -4.2868,-1.5855 -8.104,-2.8309 -11.0429,-3.4649 -1.4686,-0.3167 -2.707,-0.4193 -3.6055,-0.4316 z m -17.2871,6.5996 v 0.01 c -7.4365,-0.4402 -14.7219,0.3773 -17.0176,1.25 -9.9721,3.7972 -19.1246,11.8281 -22.1445,16.0058 -0.7618,1.0502 -2.2984,4.4712 -3.1934,8.7266 -0.4771,2.2684 -0.7775,4.82 -0.8945,7.4863 5.0542,-2.898 10.0544,-4.2811 14.2226,-4.7519 2.9891,-0.3377 5.5721,-0.2744 7.4961,-0.1387 0.9621,0.068 1.765,0.1548 2.3301,0.2148 0.371,0.039 0.7589,0.042 0.7891,0.051 v 0 c -0.018,0 -0.1097,0.012 -0.3008,0.023 6.6942,-0.4102 15.0928,0.9245 22.5762,1.5469 3.7417,0.3112 7.2225,0.4454 9.8379,0.2109 2.6153,-0.2345 4.1417,-0.9718 4.4003,-1.2304 2.8699,-2.8698 5.2246,-9.3549 5.4805,-15.045 0.128,-2.845 -0.2371,-5.4698 -0.8926,-7.2031 -0.6554,-1.7333 -1.3589,-2.3427 -2.0058,-2.5586 l -0.2735,-0.092 -0.2597,-0.1289 c -4.7358,-2.3699 -12.71,-3.9347 -20.1465,-4.375 z m 245.4082,44.5235 c -6.2884,3.9049 -13.7696,8.3328 -17.3828,12.9472 -1.8988,2.425 -2.7203,4.576 -2.4863,7.0332 0.2333,2.4496 1.6623,5.6608 5.7402,9.752 -10e-4,0 0,0 0,-0.01 v 0 0 0 0 0 0 0 0 0 0 c 0.161,-0.078 2.743,1.0179 6.3672,1.2832 3.9819,0.2916 9.1881,0.2294 14.6172,0.084 10.8581,-0.2907 22.0862,-1.2136 29.3789,0.9102 2.4042,0.7018 7.3094,2.6834 12.2735,4.666 1.0882,0.4346 1.0807,0.439 2.0859,0.8437 -0.6255,-2.133 -1.3949,-4.7117 -1.4199,-4.7597 -2.9785,-5.4966 -9.5914,-14.2504 -18.416,-21.1934 -8.5785,-6.7492 -19.1365,-11.7645 -30.7579,-11.5429 z m -256.3203,15.0957 c -6.0166,0.1916 -12.1689,2.1178 -18.0371,5.6992 -8.8245,5.3915 -14.9036,14.2917 -18.334,23.3105 -1.7989,4.7294 -2.7727,9.4695 -3.1485,13.6094 7.9624,-7.3602 17.8852,-11.5224 26.1895,-11.2285 13.4458,0.468 11.5448,-0.9423 20.8711,-3.3535 3.9679,-1.0282 9.184,-5.5591 11.4922,-10.5469 1.1541,-2.4939 1.6206,-4.9979 1.3242,-7.1484 -0.2896,-2.1011 -1.2164,-3.9528 -3.4023,-5.7696 -5.2544,-3.2472 -11.0347,-4.7593 -16.9512,-4.5722 v 0 z m 50.1562,25.916 c -0.014,0.01 -0.03,0.02 -0.047,0.041 -0.014,0.03 -0.013,0.2147 -0.027,0.2598 v 0 0 0 0 0 0 c 0.01,0 0.01,-0.012 0.014,-0.016 0.098,-0.1097 0.1087,-0.2233 0.078,-0.2617 0,10e-5 2e-4,0 -0.01,0 0,10e-5 2e-4,0 -0.01,0 0,-2e-4 -0.012,0 -0.012,0 l 0.02,-0.01 c 0,0 2e-4,-10e-5 -0.01,0 z m 17.8614,16.7929 c -0.1932,-0.01 -0.4012,9e-4 -0.625,0.025 v 0 c -0.8954,0.098 -2.049,0.4654 -3.5704,1.2188 -3.0427,1.5068 -6.8271,4.4451 -10.4804,7.918 -7.3067,6.9457 -14.3023,16.0671 -16.7324,19.7168 -6.0999,9.143 -7.6703,24.0845 -7.1231,35.9628 6.7173,-7.7574 12.8439,-14.4813 20.1914,-18.4726 10.1045,-5.4867 20.4959,-7.6344 26.6231,-10.9434 3.0635,-1.6544 4.9191,-3.3442 5.9355,-5.6816 1.0161,-2.3371 1.3413,-5.7756 -0.051,-11.3496 -0.5592,-2.2335 -2.5364,-6.1902 -5.0332,-9.7324 -2.4961,-3.5413 -5.5958,-6.8082 -7.7422,-8.2422 -0.3645,-0.2434 -0.8131,-0.4016 -1.3925,-0.4239 z" /><g
     stroke="#000000"
     stroke-width="8.16"
     id="g33"
     transform="translate(-885.5918,-132.94727)" /></svg>
