<?xml version="1.0" encoding="UTF-8" standalone="no"?>
<!-- Generator: Adobe Illustrator 21.0.2, SVG Export Plug-In . SVG Version: 6.00 Build 0)  -->

<svg
   version="1.1"
   id="Layer_3"
   x="0px"
   y="0px"
   viewBox="0 0 2357.1241 875.79802"
   xml:space="preserve"
   sodipodi:docname="Graal Astartes [Imperium, Adeptus Astartes, Space Marines].svg"
   width="2357.124"
   height="875.79803"
   inkscape:version="1.4.2 (f4327f4, 2025-05-13)"
   xmlns:inkscape="http://www.inkscape.org/namespaces/inkscape"
   xmlns:sodipodi="http://sodipodi.sourceforge.net/DTD/sodipodi-0.dtd"
   xmlns="http://www.w3.org/2000/svg"
   xmlns:svg="http://www.w3.org/2000/svg"
   xmlns:rdf="http://www.w3.org/1999/02/22-rdf-syntax-ns#"
   xmlns:cc="http://creativecommons.org/ns#"
   xmlns:dc="http://purl.org/dc/elements/1.1/"><metadata
   id="metadata15"><rdf:RDF><cc:Work
       rdf:about=""><dc:format>image/svg+xml</dc:format><dc:type
         rdf:resource="http://purl.org/dc/dcmitype/StillImage" /></cc:Work></rdf:RDF></metadata><defs
   id="defs13" /><sodipodi:namedview
   pagecolor="#ffffff"
   bordercolor="#666666"
   borderopacity="1"
   objecttolerance="10"
   gridtolerance="10"
   guidetolerance="10"
   inkscape:pageopacity="0"
   inkscape:pageshadow="2"
   inkscape:window-width="3440"
   inkscape:window-height="1369"
   id="namedview11"
   showgrid="false"
   fit-margin-top="0"
   fit-margin-left="0"
   fit-margin-right="0"
   fit-margin-bottom="0"
   inkscape:pagecheckerboard="true"
   inkscape:zoom="0.57454988"
   inkscape:cx="992.95121"
   inkscape:cy="439.47446"
   inkscape:window-x="-8"
   inkscape:window-y="-8"
   inkscape:window-maximized="1"
   inkscape:current-layer="g8"
   inkscape:showpageshadow="2"
   inkscape:deskcolor="#d1d1d1" />
<g
   id="g8"
   transform="matrix(2.3840639,0,0,2.3840639,0,75.798027)">
	
	
	<path
   id="path1"
   style="fill:#000000;stroke:none;stroke-width:0.0685125"
   transform="matrix(0.41945184,0,0,0.41945184,0,-31.793622)"
   d="m 1118.7082,0.26514407 c -49.6031,0.616612 -72.7603,1.71281703 -111.333,5.13844903 -13.49689,1.233225 -20.27969,2.055375 -21.17019,2.740493 -0.7538,0.548107 -2.0554,0.959181 -2.8777,0.959181 -2.1925,0 -15.14121,3.9737299 -19.32043,5.9605879 -1.98691,0.890667 -4.11075,2.466462 -4.72745,3.425633 -1.09621,1.6443 -1.09621,2.123892 0,7.467866 0.68517,3.15158 1.64433,12.743338 2.19244,21.307409 0.5481,8.632574 1.50726,20.553762 2.05537,26.582877 0.61658,6.029104 1.37022,15.415324 1.7128,20.896321 1.02774,15.004259 2.74054,24.458989 8.2901,46.931119 14.38757,58.23567 53.64516,123.25409 96.53406,160.04534 12.3323,10.55094 32.749,25.62371 47.2737,34.87289 l 9.2492,5.89209 0.2055,8.90664 0.2055,8.97514 -3.2885,1.37025 c -7.6734,3.22009 -16.7855,12.0582 -21.376,20.82781 -5.618,10.41391 -5.4125,24.59601 0.3426,35.62654 4.8644,9.18069 9.0437,13.70251 18.9781,20.34822 l 4.5902,3.08307 v 9.04367 8.97516 l 2.0554,2.12387 2.1239,2.12386 -2.1239,8.42706 c -7.6734,30.35108 -22.8831,60.22254 -46.3145,91.05319 -5.2754,6.98827 -9.4547,11.44162 -16.854,18.22436 -25.6239,23.49979 -35.2155,31.03618 -44.4648,34.87291 -11.5786,4.86435 -13.4969,6.23462 -23.56829,16.44301 -13.9765,14.31909 -20.5537,20.00566 -25.48663,22.26658 -8.01596,3.63118 -17.60768,9.7973 -21.85548,13.97656 -4.65887,4.59031 -6.2346,8.153 -7.05682,16.64855 -0.54799,4.79587 0.20564,16.10043 1.37032,20.34824 1.09623,4.11074 6.85129,9.38622 17.40217,15.89488 10.34546,6.44024 18.90934,10.07137 32.33784,13.90809 26.99399,7.60485 54.33049,11.85264 90.98469,14.11356 80.0912,4.86436 120.4452,5.0014 185.7375,0.6166 39.9428,-2.60349 78.9265,-8.97515 99.4804,-16.10043 7.8788,-2.74049 16.7169,-7.67339 25.6921,-14.31912 8.564,-6.37165 12.6064,-10.20838 13.9081,-13.35994 1.7128,-4.11076 2.4664,-11.37312 1.6444,-15.96344 -0.3426,-2.32942 -1.0278,-6.16614 -1.4389,-8.56409 -2.0553,-12.19522 -9.7288,-19.86861 -27.1994,-26.99392 l -8.016,-3.22012 -13.4285,-13.42845 c -14.3191,-14.31913 -15.8949,-15.41532 -28.4327,-20.7593 -6.6458,-2.74049 -9.6603,-4.79586 -20.6908,-13.70253 -28.5697,-23.15721 -38.0929,-32.54346 -50.2882,-49.67157 -11.9213,-16.7856 -14.4562,-20.82785 -21.1019,-34.05077 -7.3308,-14.45613 -11.0305,-24.73302 -15.8263,-43.98506 -2.8091,-11.30458 -2.8777,-11.85269 -1.713,-13.15441 1.0278,-1.09618 1.1648,-2.67199 1.0278,-12.12673 -0.069,-5.96058 0.137,-10.89349 0.4796,-11.03052 0.3425,-0.13702 3.22,-1.6443 6.4402,-3.49413 9.5917,-5.34399 16.7169,-13.83954 19.7316,-23.4313 1.5758,-5.20696 1.5758,-19.80013 -0.069,-26.03477 -2.1925,-8.22151 -8.4955,-15.68938 -18.7725,-22.3351 l -5.7549,-3.69968 0.4797,-8.76961 c 0.2055,-4.79588 0.6165,-8.90663 0.8905,-9.11217 0.2055,-0.27406 2.1238,-0.95918 4.1107,-1.6443 4.1792,-1.37025 9.7974,-4.79588 24.7331,-15.00425 33.2286,-22.81469 53.2342,-41.31308 77.9673,-72.34927 12.9488,-16.16896 19.5946,-26.7199 34.2562,-53.91937 11.9898,-22.2666 14.1136,-26.7199 17.6079,-36.58573 6.8511,-19.6631 12.7432,-43.84804 14.7301,-60.5651 0.7536,-6.029102 1.9184,-14.387646 2.7405,-18.498396 0.7537,-4.179267 1.9869,-15.072755 2.7405,-24.321953 1.725,-14.895481 5.2582,-33.318809 5.1385,-34.941411 -4.2478,-6.714233 -23.1574,-11.852671 -59.7431,-16.1004539 C 1285.0562,1.7039071 1218.325,-0.89956393 1118.7078,0.26514407 Z M 2300.1449,188.08744 c 19.3109,-34.80734 38.3834,-71.52192 56.9791,-109.905349 h -917.8646 v 76.290049 c 21.2182,5.72175 27.4167,4.52972 48.6349,10.48988 5.2449,9.53625 48.6349,63.17769 34.3305,112.051 -13.8276,47.20447 -40.5291,68.18423 -50.5421,75.81324 -21.695,9.29784 -40.2907,22.6486 -59.84,27.41673 0,10.48988 -1.1921,31.70805 -1.1921,31.70805 -3.3377,41.48271 -10.9667,46.96606 -21.2181,77.00527 0,15.0196 7.8674,41.48271 15.0196,47.44287 12.1587,10.01307 18.1188,3.8145 18.8341,7.3906 0,82.01179 0,163.78519 0,245.79699 4.2913,4.76812 9.0594,9.53625 14.3043,14.30438 21.9334,20.26454 45.0589,32.66168 64.3698,40.52909 l -9.5363,-248.89628 c 5.4834,0 11.4435,-0.2384 17.8805,-0.95362 13.3508,87.97196 23.1254,186.6722 36.2378,275.35938 4.7681,1.19203 9.7746,2.38406 14.7812,3.33769 15.9732,2.86088 52.6878,7.86741 113.7198,-15.25801 l -91.7864,-293.71667 c 6.9137,-5.24495 9.2978,-8.82104 16.6884,-15.73483 31.4696,92.50168 67.2306,205.0295 99.1771,299.43843 35.7609,-16.45004 78.9125,-42.19793 129.2162,-81.53498 L 1641.428,497.53894 c 5.7218,-8.10582 11.2051,-16.45005 16.4501,-25.03268 l 208.6055,262.72385 c 30.0393,-25.74789 62.2241,-56.0255 97.0314,-91.54806 L 1692.2086,403.13 c 2.6224,-5.96016 5.2449,-12.15872 7.8674,-18.35729 l 301.1073,218.61866 c 32.6616,-35.28414 66.7537,-74.8596 101.7995,-118.72638 L 1716.526,302.52251 c 2.6225,-8.58263 5.245,-16.92686 7.629,-25.27108 l 433.8997,134.69961 c 36.7145,-50.78056 73.9059,-106.56766 110.1437,-168.31491 l -536.8912,-41.48271 c 1.1921,-5.72176 2.3841,-11.20511 3.3377,-16.45005 z M 945.28135,377.85893 c -19.54933,-4.76813 -38.14503,-18.3573 -59.84001,-27.41674 -10.01307,-7.86741 -36.71458,-28.60877 -50.54215,-75.81323 -14.30439,-48.87331 29.32398,-102.51475 34.33052,-112.05101 21.21817,-5.72175 27.41673,-4.52972 48.6349,-10.48988 V 75.798027 H 0 C 18.595699,114.18146 37.66821,150.65763 56.979128,185.70337 l 565.499962,-2.38406 c 0.95363,5.24494 2.14566,10.72829 3.33769,16.45004 L 88.687178,241.25206 C 125.16336,302.99932 162.11635,358.78642 198.83093,409.56698 L 632.73057,274.86736 c 2.38406,8.34423 4.76812,16.68845 7.629,25.27108 L 253.90281,482.28093 c 35.04574,44.10518 69.13785,83.44223 101.79953,118.72638 L 656.80961,382.38865 c 2.62247,6.19856 5.24494,12.15872 7.86741,18.35729 L 393.60895,641.05958 c 34.80734,35.52256 66.9922,65.80017 97.03141,91.54806 L 699.24595,469.88379 c 5.24494,8.58263 10.72829,16.92686 16.45004,25.03268 L 528.78538,763.83888 c 50.54215,39.57546 93.4553,65.08494 129.21626,81.53498 31.70805,-94.40893 67.70742,-207.17515 99.17706,-299.43843 7.3906,6.91379 9.53626,10.48988 16.68845,15.73483 l -92.02487,293.71667 c 61.03204,23.36383 97.74662,18.35729 113.71985,15.25801 5.00654,-0.95363 10.01307,-2.14566 14.7812,-3.33769 13.11235,-88.68718 22.88701,-187.14902 36.23777,-275.35938 6.43697,0.71522 12.39713,0.95362 17.88048,0.95362 l -9.05944,248.89628 c 19.31091,-7.86741 42.19793,-20.26455 64.36972,-40.52909 5.24494,-4.76813 10.01307,-9.53626 14.30439,-14.30438 0,-82.0118 0,-163.7852 0,-245.79699 0.47681,-3.5761 6.67537,2.62247 18.8341,-7.3906 7.15219,-5.96016 15.0196,-32.42327 15.0196,-47.44287 -10.25147,-29.8008 -17.88048,-35.52256 -21.21817,-77.00527 -0.2384,0.23841 -1.43043,-20.97976 -1.43043,-31.46964 z" />
</g>
</svg>
