<?xml version="1.0" encoding="UTF-8" standalone="no"?>
<!-- Generator: Adobe Illustrator 21.0.2, SVG Export Plug-In . SVG Version: 6.00 Build 0)  -->

<svg
   version="1.1"
   id="Layer_3"
   x="0px"
   y="0px"
   viewBox="0 0 2357.1241 875.79802"
   xml:space="preserve"
   sodipodi:docname="Graal Astartes [Imperium, Adeptus Astartes, Space Marines].svg"
   width="2357.124"
   height="875.79803"
   inkscape:version="1.4.2 (f4327f4, 2025-05-13)"
   xmlns:inkscape="http://www.inkscape.org/namespaces/inkscape"
   xmlns:sodipodi="http://sodipodi.sourceforge.net/DTD/sodipodi-0.dtd"
   xmlns="http://www.w3.org/2000/svg"
   xmlns:svg="http://www.w3.org/2000/svg"
   xmlns:rdf="http://www.w3.org/1999/02/22-rdf-syntax-ns#"
   xmlns:cc="http://creativecommons.org/ns#"
   xmlns:dc="http://purl.org/dc/elements/1.1/"><metadata
   id="metadata15"><rdf:RDF><cc:Work
       rdf:about=""><dc:format>image/svg+xml</dc:format><dc:type
         rdf:resource="http://purl.org/dc/dcmitype/StillImage" /></cc:Work></rdf:RDF></metadata><defs
   id="defs13" /><sodipodi:namedview
   pagecolor="#ffffff"
   bordercolor="#666666"
   borderopacity="1"
   objecttolerance="10"
   gridtolerance="10"
   guidetolerance="10"
   inkscape:pageopacity="0"
   inkscape:pageshadow="2"
   inkscape:window-width="3440"
   inkscape:window-height="1369"
   id="namedview11"
   showgrid="false"
   fit-margin-top="0"
   fit-margin-left="0"
   fit-margin-right="0"
   fit-margin-bottom="0"
   inkscape:pagecheckerboard="true"
   inkscape:zoom="0.57454988"
   inkscape:cx="992.08097"
   inkscape:cy="439.47446"
   inkscape:window-x="-8"
   inkscape:window-y="-8"
   inkscape:window-maximized="1"
   inkscape:current-layer="g8"
   inkscape:showpageshadow="2"
   inkscape:deskcolor="#d1d1d1" />
<g
   id="g8"
   transform="matrix(2.3840639,0,0,2.3840639,0,75.798027)">
	
	<path
   d="m 396.5,126.7 c -8.2,-2 -16,-7.7 -25.1,-11.5 -4.2,-3.3 -15.4,-12 -21.2,-31.8 -6,-20.5 12.3,-43 14.4,-47 C 373.5,34 376.1,34.5 385,32 V 0 H 0 c 7.8,16.1 15.8,31.4 23.9,46.1 l 237.2,-1 c 0.4,2.2 0.9,4.5 1.4,6.9 L 37.2,69.4 C 52.5,95.3 68,118.7 83.4,140 l 182,-56.5 c 1,3.5 2,7 3.2,10.6 l -162.1,76.4 c 14.7,18.5 29,35 42.7,49.8 l 126.3,-91.7 c 1.1,2.6 2.2,5.1 3.3,7.7 L 165.1,237.1 c 14.6,14.9 28.1,27.6 40.7,38.4 l 87.5,-110.2 c 2.2,3.6 4.5,7.1 6.9,10.5 l -78.4,112.8 c 21.2,16.6 39.2,27.3 54.2,34.2 13.3,-39.6 28.4,-86.9 41.6,-125.6 3.1,2.9 4,4.4 7,6.6 L 286,327 c 25.6,9.8 41,7.7 47.7,6.4 2.1,-0.4 4.2,-0.9 6.2,-1.4 5.5,-37.2 9.6,-78.5 15.2,-115.5 2.7,0.3 5.2,0.4 7.5,0.4 l -3.8,104.4 c 8.1,-3.3 17.7,-8.5 27,-17 2.2,-2 4.2,-4 6,-6 0,-34.4 0,-68.7 0,-103.1 0.2,-1.5 2.8,1.1 7.9,-3.1 3,-2.5 6.3,-13.6 6.3,-19.9 -4.3,-12.5 -7.5,-14.9 -8.9,-32.3 -0.1,0.1 -0.6,-8.8 -0.6,-13.2 z"
   id="path4"
   inkscape:connector-curvature="0"
   style="display:inline" />
	<path
   d="m 964.8,47.1 c 8.1,-14.6 16.1,-30 23.9,-46.1 h -385 v 32 c 8.9,2.4 11.5,1.9 20.4,4.4 2.2,4 20.4,26.5 14.4,47 -5.8,19.8 -17,28.6 -21.2,31.8 -9.1,3.9 -16.9,9.5 -25.1,11.5 0,4.4 -0.5,13.3 -0.5,13.3 -1.4,17.4 -4.6,19.7 -8.9,32.3 0,6.3 3.3,17.4 6.3,19.9 5.1,4.2 7.6,1.6 7.9,3.1 0,34.4 0,68.7 0,103.1 1.8,2 3.8,4 6,6 9.2,8.5 18.9,13.7 27,17 L 626,218 c 2.3,0 4.8,-0.1 7.5,-0.4 5.6,36.9 9.7,78.3 15.2,115.5 2,0.5 4.1,1 6.2,1.4 6.7,1.2 22.1,3.3 47.7,-6.4 L 664.1,204.9 c 2.9,-2.2 3.9,-3.7 7,-6.6 13.2,38.8 28.2,86 41.6,125.6 15,-6.9 33.1,-17.7 54.2,-34.2 L 688.5,176.9 c 2.4,-3.4 4.7,-6.9 6.9,-10.5 l 87.5,110.2 c 12.6,-10.8 26.1,-23.5 40.7,-38.4 L 709.8,137.3 c 1.1,-2.5 2.2,-5.1 3.3,-7.7 l 126.3,91.7 c 13.7,-14.8 28,-31.4 42.7,-49.8 L 720,95.1 c 1.1,-3.6 2.2,-7.1 3.2,-10.6 l 182,56.5 c 15.4,-21.3 31,-44.7 46.2,-70.6 L 726.2,53 c 0.5,-2.4 1,-4.7 1.4,-6.9 z"
   id="path6"
   inkscape:connector-curvature="0"
   style="display:inline" /><path
   d="m 1118.7082,0.26514407 c -49.6031,0.616612 -72.7603,1.71281703 -111.333,5.13844903 -13.49689,1.233225 -20.27969,2.055375 -21.17019,2.740493 -0.7538,0.548107 -2.0554,0.959181 -2.8777,0.959181 -2.1925,0 -15.14121,3.9737299 -19.32043,5.9605879 -1.98691,0.890667 -4.11075,2.466462 -4.72745,3.425633 -1.09621,1.6443 -1.09621,2.123892 0,7.467866 0.68517,3.15158 1.64433,12.743338 2.19244,21.307409 0.5481,8.632574 1.50726,20.553762 2.05537,26.582877 0.61658,6.029104 1.37022,15.415324 1.7128,20.896321 1.02774,15.004259 2.74054,24.458989 8.2901,46.931119 14.38757,58.23567 53.64516,123.25409 96.53406,160.04534 12.3323,10.55094 32.749,25.62371 47.2737,34.87289 l 9.2492,5.89209 0.2055,8.90664 0.2055,8.97514 -3.2885,1.37025 c -7.6734,3.22009 -16.7855,12.0582 -21.376,20.82781 -5.618,10.41391 -5.4125,24.59601 0.3426,35.62654 4.8644,9.18069 9.0437,13.70251 18.9781,20.34822 l 4.5902,3.08307 v 9.04367 8.97516 l 2.0554,2.12387 2.1239,2.12386 -2.1239,8.42706 c -7.6734,30.35108 -22.8831,60.22254 -46.3145,91.05319 -5.2754,6.98827 -9.4547,11.44162 -16.854,18.22436 -25.6239,23.49979 -35.2155,31.03618 -44.4648,34.87291 -11.5786,4.86435 -13.4969,6.23462 -23.56829,16.44301 -13.9765,14.31909 -20.5537,20.00566 -25.48663,22.26658 -8.01596,3.63118 -17.60768,9.7973 -21.85548,13.97656 -4.65887,4.59031 -6.2346,8.153 -7.05682,16.64855 -0.54799,4.79587 0.20564,16.10043 1.37032,20.34824 1.09623,4.11074 6.85129,9.38622 17.40217,15.89488 10.34546,6.44024 18.90934,10.07137 32.33784,13.90809 26.99399,7.60485 54.33049,11.85264 90.98469,14.11356 80.0912,4.86436 120.4452,5.0014 185.7375,0.6166 39.9428,-2.60349 78.9265,-8.97515 99.4804,-16.10043 7.8788,-2.74049 16.7169,-7.67339 25.6921,-14.31912 8.564,-6.37165 12.6064,-10.20838 13.9081,-13.35994 1.7128,-4.11076 2.4664,-11.37312 1.6444,-15.96344 -0.3426,-2.32942 -1.0278,-6.16614 -1.4389,-8.56409 -2.0553,-12.19522 -9.7288,-19.86861 -27.1994,-26.99392 l -8.016,-3.22012 -13.4285,-13.42845 c -14.3191,-14.31913 -15.8949,-15.41532 -28.4327,-20.7593 -6.6458,-2.74049 -9.6603,-4.79586 -20.6908,-13.70253 -28.5697,-23.15721 -38.0929,-32.54346 -50.2882,-49.67157 -11.9213,-16.7856 -14.4562,-20.82785 -21.1019,-34.05077 -7.3308,-14.45613 -11.0305,-24.73302 -15.8263,-43.98506 -2.8091,-11.30458 -2.8777,-11.85269 -1.713,-13.15441 1.0278,-1.09618 1.1648,-2.67199 1.0278,-12.12673 -0.069,-5.96058 0.137,-10.89349 0.4796,-11.03052 0.3425,-0.13702 3.22,-1.6443 6.4402,-3.49413 9.5917,-5.34399 16.7169,-13.83954 19.7316,-23.4313 1.5758,-5.20696 1.5758,-19.80013 -0.069,-26.03477 -2.1925,-8.22151 -8.4955,-15.68938 -18.7725,-22.3351 l -5.7549,-3.69968 0.4797,-8.76961 c 0.2055,-4.79588 0.6165,-8.90663 0.8905,-9.11217 0.2055,-0.27406 2.1238,-0.95918 4.1107,-1.6443 4.1792,-1.37025 9.7974,-4.79588 24.7331,-15.00425 33.2286,-22.81469 53.2342,-41.31308 77.9673,-72.34927 12.9488,-16.16896 19.5946,-26.7199 34.2562,-53.91937 11.9898,-22.2666 14.1136,-26.7199 17.6079,-36.58573 6.8511,-19.6631 12.7432,-43.84804 14.7301,-60.5651 0.7536,-6.029102 1.9184,-14.387646 2.7405,-18.498396 0.7537,-4.179267 1.9869,-15.072755 2.7405,-24.321953 1.725,-14.895481 5.2582,-33.318809 5.1385,-34.941411 -4.2478,-6.714233 -23.1574,-11.852671 -59.7431,-16.1004539 -66.7997,-7.741919 -133.5309,-10.34539003 -233.1481,-9.18068203 z"
   id="path1"
   style="fill:#000000;stroke:none;stroke-width:0.0685125"
   transform="matrix(0.41945184,0,0,0.41945184,0,-31.793622)"
   sodipodi:nodetypes="cccscccccccccccccccccccccccccccccccccccccccccscccccccsccccccccccccccccccc" />
</g>
</svg>
