<?xml version="1.0" encoding="UTF-8" standalone="no"?>
<!-- Generator: Adobe Illustrator 21.0.2, SVG Export Plug-In . SVG Version: 6.00 Build 0)  -->

<svg
   version="1.1"
   id="Layer_3"
   x="0px"
   y="0px"
   viewBox="0 0 2357.1231 1092.2181"
   xml:space="preserve"
   sodipodi:docname="Vulkan Astartes [Imperium, Adeptus Astartes, Space Marines, Salamanders].svg"
   width="2357.123"
   height="1092.2181"
   inkscape:version="1.4.2 (f4327f4, 2025-05-13)"
   xmlns:inkscape="http://www.inkscape.org/namespaces/inkscape"
   xmlns:sodipodi="http://sodipodi.sourceforge.net/DTD/sodipodi-0.dtd"
   xmlns="http://www.w3.org/2000/svg"
   xmlns:svg="http://www.w3.org/2000/svg"
   xmlns:rdf="http://www.w3.org/1999/02/22-rdf-syntax-ns#"
   xmlns:cc="http://creativecommons.org/ns#"
   xmlns:dc="http://purl.org/dc/elements/1.1/"><metadata
   id="metadata15"><rdf:RDF><cc:Work
       rdf:about=""><dc:format>image/svg+xml</dc:format><dc:type
         rdf:resource="http://purl.org/dc/dcmitype/StillImage" /></cc:Work></rdf:RDF></metadata><defs
   id="defs13" /><sodipodi:namedview
   pagecolor="#ffffff"
   bordercolor="#666666"
   borderopacity="1"
   objecttolerance="10"
   gridtolerance="10"
   guidetolerance="10"
   inkscape:pageopacity="0"
   inkscape:pageshadow="2"
   inkscape:window-width="3440"
   inkscape:window-height="1369"
   id="namedview11"
   showgrid="false"
   fit-margin-top="0"
   fit-margin-left="0"
   fit-margin-right="0"
   fit-margin-bottom="0"
   inkscape:pagecheckerboard="true"
   inkscape:zoom="0.40626812"
   inkscape:cx="-18.460715"
   inkscape:cy="262.14216"
   inkscape:window-x="-8"
   inkscape:window-y="-8"
   inkscape:window-maximized="1"
   inkscape:current-layer="g8"
   inkscape:showpageshadow="2"
   inkscape:deskcolor="#d1d1d1" />
<g
   id="g8"
   transform="matrix(2.3840639,0,0,2.3840639,0,292.21793)">
	
	<path
   style="display:inline"
   d="M 603.70016,0.99981113 V 33.000218 c 8.9,2.4 11.49995,1.900149 20.39995,4.400149 1.3245,2.408192 8.44825,11.521715 12.59912,22.867498 l 2.03909,-3.531752 a 0.50339255,0.50339255 0 0 1 0.68734,-0.18351 l 54.38456,31.398265 a 0.50339255,0.50339255 0 0 1 0.18351,0.688163 L 648.6192,167.23054 a 0.50339255,0.50339255 0 0 1 -0.68735,0.18515 l -54.38537,-31.39826 a 0.50339255,0.50339255 0 0 1 -0.18515,-0.68898 l 5.83956,-10.11437 c -2.32748,1.04164 -4.64806,1.91164 -7.00124,2.48558 0,4.4 -0.49974,13.3004 -0.49974,13.3004 -1.4,17.4 -4.60025,19.70025 -8.90025,32.30025 0,6.3 3.29997,17.39938 6.29997,19.89938 5.1,4.2 7.60077,1.60001 7.90077,3.10001 v 103.09996 c 1.8,2 3.79931,4.00012 5.99931,6.00012 9.2,8.5 18.90058,13.70009 27.00058,17.00009 l -4.00036,-104.40009 c 2.3,0 4.80016,-0.0998 7.50016,-0.39979 5.6,36.9 9.70021,78.3 15.20021,115.5 2,0.5 4.10002,1.00008 6.20002,1.40008 6.7,1.2 22.09954,3.30009 47.69954,-6.39991 L 664.10041,204.9001 c 2.9,-2.2 3.8996,-3.69981 6.9996,-6.59981 13.2,38.8 28.20029,85.99961 41.60029,125.59961 15,-6.9 33.0994,-17.70007 54.1994,-34.20007 L 688.49989,176.90006 c 2.4,-3.4 4.70048,-6.90023 6.90048,-10.50023 l 87.49994,110.20032 c 12.6,-10.8 26.09994,-23.50032 40.69994,-38.40032 L 709.80018,137.30036 c 1.1,-2.5 2.19991,-5.10005 3.29991,-7.70005 l 126.30006,91.69938 c 13.7,-14.8 27.99971,-31.40008 42.69971,-49.80008 L 719.99974,95.100392 c 1.1,-3.6 2.19996,-7.100171 3.19996,-10.600171 l 182.00032,56.499839 c 15.4,-21.3 31.00033,-44.699811 46.20033,-70.599811 L 726.19976,53.00037 c 0.5,-2.4 1.00009,-4.700474 1.40009,-6.900474 l 237.20002,1.000294 c 8.1,-14.6 16.09974,-30.000379 23.89974,-46.10037887 z"
   id="path21" /><path
   style="display:inline"
   d="M 0,3.3603336e-4 C 7.8,16.100336 15.799743,31.399896 23.899743,46.099896 L 261.09976,45.099602 c 0.4,2.2 0.90009,4.500474 1.40009,6.900474 L 37.200135,69.399954 c 15.3,25.9 30.799508,49.299806 46.199508,70.599806 L 265.39996,83.499927 c 1,3.5 1.99996,7.00017 3.19996,10.60017 L 106.49981,170.50014 c 14.7,18.5 29.00052,35.00007 42.70052,49.80007 l 126.30007,-91.7002 c 1.1,2.6 2.1999,5.10006 3.2999,7.70006 L 165.10018,237.10041 c 14.6,14.9 28.09994,27.5995 40.69994,38.3995 l 87.49994,-110.1995 c 2.2,3.6 4.49966,7.0994 6.89966,10.4994 l -78.39981,112.8006 c 21.2,16.6 39.20022,27.29925 54.20022,34.19925 13.3,-39.6 28.39947,-86.89961 41.59947,-125.59961 3.1,2.9 4.00042,4.39981 7.00042,6.59981 L 285.9998,326.99991 c 25.6,9.8 41.00036,7.69992 47.70036,6.39992 2.1,-0.4 4.20002,-0.90008 6.20002,-1.40008 5.5,-37.2 9.60021,-78.5 15.20021,-115.5 2.7,0.3 5.19934,0.40061 7.49934,0.40061 l -3.79964,104.39927 c 8.1,-3.3 17.69976,-8.49927 26.99976,-16.99927 2.2,-2 4.20012,-4.00013 6.00012,-6.00013 V 195.20028 c 0.2,-1.5 2.79995,1.09999 7.89995,-3.10001 3,-2.5 6.29997,-13.60021 6.29997,-19.90021 -4.3,-12.5 -7.50024,-14.90025 -8.90024,-32.30025 -0.1,0.1 -0.59969,-8.79962 -0.59969,-13.19962 -8.2,-2 -15.99993,-7.70052 -25.09993,-11.50052 -4.2,-3.3 -15.40034,-11.99969 -21.20034,-31.799691 -3.33618,-11.398597 0.84038,-23.415176 5.56757,-32.52636 l -15.47057,-8.932195 a 0.50339255,0.50339255 0 0 1 -0.24413,-0.355551 L 333.23401,3.3603336e-4 Z"
   id="path6" />
	<path
   id="path19"
   style="opacity:1;baseline-shift:baseline;display:inline;overflow:visible;stroke:none;stroke-width:0;stroke-linecap:round;stroke-linejoin:round;stroke-dasharray:none;paint-order:markers fill stroke;enable-background:accumulate;stop-color:#000000;stop-opacity:1"
   inkscape:label="path19"
   d="m 497.69351,-4.1502312 c -6.8173,-2.767103 -18.8586,-2.080369 -29.3841,0.28176 l -27.1587,46.8803172 c 1.3574,6.72984 3.6254,13.24335 6.7449,19.36573 20.2601,39.017374 49.1315,21.19291 41.5067,3.35135 -2.546,-5.95625 -7.8289,-14.85055 -13.8756,-28.22601 l 12.1429,-21.03212 c 15.7811,10.02306 30.0432,7.17014 40.9968,-3.70399 z m 49.015,96.7471672 -46.6821,-25.5745 -5.974,42.415564 27.7558,1.55249 c 10.8337,1.43875 16.8629,-6.53901 24.9003,-18.393554 z m -61.675,-0.7392 c -9.5194,4.22338 -29.3915,-7.20335 -38.4319,-20.92975 l 1.6317,52.017474 36.47,-0.10491 z m 16.8414,-136.138249 19.999,11.546449 -14.8395,25.7026858 -19.999,-11.5464488 z m 35.6753,1.716051 20.6975,11.949699 -23.6032,40.882039 -20.6975,-11.9496982 z m 22.0755,25.641511 19.7517,11.4036508 -29.6243,51.3107962 -19.7517,-11.40365 z m 19.74,30.282877 20.8394,12.0316 -24.2711,42.03877 -20.8393,-12.0316 z M 465.46091,-9.3009122 c 6.2454,-1.5934678 12.7299,-2.0303588 19.1362,-1.2901958 l -20.7011,-11.95175 -27.3225,47.324074 6.8745,4.03692 22.0093,-38.1211572 z m 23.887,32.8614482 -8.3185,14.4082 c 2.1495,4.34991 6.125,13.95414 8.2222,17.29411 3.9976,2.30805 6.9709,4.28174 9.2539,5.34275 l 20.0162,-34.66917 c -8.5202,4.47532 -18.1033,4.27271 -29.1738,-2.37589 z m 41.1862,-7.70266 c -1.0763,1.28464 -2.3525,2.38601 -3.7771,3.26588 l -24.9935,43.29007 72.2265,41.700004 27.3226,-47.324074 -9.2539,-5.3427 -13.6802,23.69477 -30.286,-17.48565 3.6206,-6.27107 -27.4011,-15.88792 10.0575,-17.42007 -3.8375,-2.2156 z m -136.04246,-136.361206 -60.21553,104.29627 9.20127,56.128518 36.87801,21.291533 82.2195,-142.408405 z m 50.40286,78.948623 19.086,11.019299 -34.1815,59.204204 -19.086,-11.0193 z m 163.8946,96.239633 19.8936,11.48555 -31.9365,55.315714 -19.8936,-11.48555 z m 30.5936,4.858815 51.85769,29.940055 -43.26699,74.940644 -51.85769,-29.94005 z M 493.18081,128.6081 v 86.43676 l 62.2728,-55.98081 -25.3779,-30.45595 z m 0,-14.23043 h 36.8949 v 9.30774 h -36.8949 z m -45.9002,13.48278 -24.3488,30.94318 62.193,56.24123 v -87.18441 z" />
</g>
</svg>
